<mxfile host="Electron" agent="Mozilla/5.0 (Macintosh; Intel Mac OS X 10_15_7) AppleWebKit/537.36 (KHTML, like Gecko) draw.io/24.7.8 Chrome/128.0.6613.36 Electron/32.0.1 Safari/537.36" version="24.7.8" pages="4">
  <diagram name="Backup" id="3rsGva4ZOfveTl0GbTzm">
    <mxGraphModel dx="1191" dy="791" grid="1" gridSize="10" guides="1" tooltips="1" connect="1" arrows="1" fold="1" page="1" pageScale="1" pageWidth="827" pageHeight="1169" math="0" shadow="0">
      <root>
        <mxCell id="0" />
        <mxCell id="1" parent="0" />
        <mxCell id="fqkrjUcv9Db4QlrvQPdM-2" value="vnet&amp;nbsp;" style="swimlane;whiteSpace=wrap;html=1;" parent="1" vertex="1">
          <mxGeometry x="120" y="150" width="640" height="400" as="geometry" />
        </mxCell>
        <mxCell id="fqkrjUcv9Db4QlrvQPdM-5" value="Postgres flexible server&amp;nbsp;&lt;div&gt;Multiple databases&lt;/div&gt;&lt;div&gt;replica&lt;/div&gt;" style="image;aspect=fixed;html=1;points=[];align=center;fontSize=12;image=img/lib/azure2/databases/SQL_Server.svg;" parent="fqkrjUcv9Db4QlrvQPdM-2" vertex="1">
          <mxGeometry x="530" y="219" width="68" height="68" as="geometry" />
        </mxCell>
        <mxCell id="fqkrjUcv9Db4QlrvQPdM-10" value="" style="endArrow=classic;html=1;rounded=0;entryX=0;entryY=0.574;entryDx=0;entryDy=0;entryPerimeter=0;" parent="fqkrjUcv9Db4QlrvQPdM-2" edge="1">
          <mxGeometry width="50" height="50" relative="1" as="geometry">
            <mxPoint x="110" y="249" as="sourcePoint" />
            <mxPoint x="530" y="248.03200000000004" as="targetPoint" />
          </mxGeometry>
        </mxCell>
        <mxCell id="fqkrjUcv9Db4QlrvQPdM-18" value="#4 pg_dump&lt;div&gt;database&lt;/div&gt;" style="edgeLabel;html=1;align=center;verticalAlign=middle;resizable=0;points=[];" parent="fqkrjUcv9Db4QlrvQPdM-10" vertex="1" connectable="0">
          <mxGeometry x="0.0803" relative="1" as="geometry">
            <mxPoint as="offset" />
          </mxGeometry>
        </mxCell>
        <mxCell id="fqkrjUcv9Db4QlrvQPdM-13" value="AKS" style="swimlane;whiteSpace=wrap;html=1;" parent="fqkrjUcv9Db4QlrvQPdM-2" vertex="1">
          <mxGeometry x="50" y="60" width="240" height="260" as="geometry" />
        </mxCell>
        <mxCell id="fqkrjUcv9Db4QlrvQPdM-4" value="" style="shape=image;aspect=fixed;image=data:image/svg+xml,PHN2ZyB3aWR0aD0iMjkxIiBoZWlnaHQ9IjIwOCIgdmlld0JveD0iMCAwIDI5MSAyMDgiIGZpbGw9Im5vbmUiIHhtbG5zPSJodHRwOi8vd3d3LnczLm9yZy8yMDAwL3N2ZyI+CjxyZWN0IHdpZHRoPSIyOTEiIGhlaWdodD0iMjA4IiBmaWxsPSJ3aGl0ZSIvPgo8cGF0aCBkPSJNMTA1Ljg5OSA0Mi42QzEwNC44OTkgNDAuMyAxMDIuNzk5IDM5IDk5Ljk5OTIgMzlDOTcuOTk5MiAzOSA5NS4xOTkyIDQwLjEgOTMuNzk5MiA0My40TDgzLjQ5OTIgNjQuOUM4Mi4zOTkyIDY2LjggODIuNzk5MiA2OC4xIDgzLjI5OTIgNjguOUM4My45OTkyIDcwIDg1LjM5OTIgNzAuNSA4Ni4wOTkyIDcwLjVIODYuMTk5MkM4Ny40OTkyIDcwLjUgODguNjk5MiA2OS43IDg5LjI5OTIgNjguNEM4OS40OTkyIDY3LjkgOTAuMjk5MiA2Ni4yIDkwLjk5OTIgNjQuOEM5MS40OTkyIDYzLjggOTEuNzk5MiA2My4yIDkxLjg5OTIgNjIuOUg5OS45OTkyQzEwMS43OTkgNjIuOSAxMDMuMTk5IDYxLjQgMTAzLjE5OSA1OS41QzEwMy4xOTkgNTcuNiAxMDEuNzk5IDU2LjEgOTkuOTk5MiA1Ni4xSDk1LjA5OTJMOTkuNTk5MiA0Ni44VjQ2LjdDOTkuNzk5MiA0Ni4zIDk5Ljg5OTIgNDYuMyA5OS43OTkyIDQ2LjNDOTkuODk5MiA0Ni4zIDk5Ljk5OTIgNDYuMyA5OS45OTkyIDQ2LjNDMTAwLjA5OSA0Ni4zIDEwMC4xOTkgNDYuNyAxMDAuMjk5IDQ2LjhMMTEwLjU5OSA2OC40QzExMC44OTkgNjkgMTExLjY5OSA3MCAxMTIuODk5IDcwLjRDMTEzLjc5OSA3MC42IDExNC43OTkgNzAuNSAxMTUuNjk5IDY5LjhDMTE3LjE5OSA2OC45IDExNy40OTkgNjYuOSAxMTYuNTk5IDY1LjJMMTA1Ljg5OSA0Mi42WiIgZmlsbD0iIzI2MDBGRiIvPgo8cGF0aCBkPSJNMTM4LjIwMSA1MS4zOTk5SDEyOS41MDFDMTI3LjQwMSA1MS4zOTk5IDEyNi4wMDEgNTAuMjk5OSAxMjYuMDAxIDQ4LjM5OTlDMTI2LjAwMSA0Ni40OTk5IDEyNy4zMDEgNDUuMzk5OSAxMjkuNTAxIDQ1LjM5OTlIMTQzLjYwMUMxNDUuNjAxIDQ1LjM5OTkgMTQ2LjYwMSA0My42OTk5IDE0Ni42MDEgNDIuMDk5OUMxNDYuNjAxIDQwLjI5OTkgMTQ1LjMwMSAzOC44OTk5IDE0My42MDEgMzguODk5OUgxMjkuNDAxQzEyMy45MDEgMzguODk5OSAxMTkuODAxIDQyLjk5OTkgMTE5LjgwMSA0OC4yOTk5QzExOS44MDEgNTMuNjk5OSAxMjMuOTAxIDU3LjY5OTkgMTI5LjQwMSA1Ny42OTk5SDEzOC4wMDFDMTQwLjEwMSA1Ny42OTk5IDE0MS41MDEgNTguOTk5OSAxNDEuNTAxIDYwLjg5OTlDMTQxLjUwMSA2Mi43OTk5IDE0MC4yMDEgNjMuODk5OSAxMzguMDAxIDYzLjg5OTlIMTI0LjAwMUMxMjIuMzAxIDYzLjg5OTkgMTIxLjAwMSA2NS4yOTk5IDEyMS4wMDEgNjcuMDk5OUMxMjEuMDAxIDY3Ljk5OTkgMTIxLjMwMSA2OC44OTk5IDEyMS45MDEgNjkuNDk5OUMxMjIuNTAxIDcwLjA5OTkgMTIzLjIwMSA3MC4zOTk5IDEyNC4wMDEgNzAuMzk5OUgxMzguMTAxQzE0My42MDEgNzAuMzk5OSAxNDcuNjAxIDY2LjM5OTkgMTQ3LjYwMSA2MC45OTk5QzE0Ny42MDEgNTUuNjk5OSAxNDMuNTAxIDUxLjM5OTkgMTM4LjIwMSA1MS4zOTk5WiIgZmlsbD0iIzI2MDBGRiIvPgo8cGF0aCBkPSJNMTc2LjQwMiAzOUgxNTMuNTAyQzE1MS42MDIgMzkgMTUwLjEwMiA0MC40IDE1MC4xMDIgNDIuMkMxNTAuMTAyIDQzLjkgMTUxLjYwMiA0NS40IDE1My41MDIgNDUuNEgxNjEuNjAyVjY3LjNDMTYxLjYwMiA2OS4yIDE2My4xMDIgNzAuNyAxNjUuMDAyIDcwLjdDMTY2LjkwMiA3MC43IDE2OC40MDIgNjkuMiAxNjguNDAyIDY3LjNWNDUuM0gxNzYuNTAyQzE3OC40MDIgNDUuMyAxNzkuOTAyIDQzLjkgMTc5LjkwMiA0Mi4xQzE3OS44MDIgNDAuNCAxNzguMzAyIDM5IDE3Ni40MDIgMzlaIiBmaWxsPSIjMjYwMEZGIi8+CjxwYXRoIGQ9Ik0xODYuODAyIDQ1LjRIMjA3LjIwMkMyMDkuMTAyIDQ1LjQgMjEwLjYwMiA0NCAyMTAuNjAyIDQyLjJDMjEwLjYwMiA0MC40IDIwOS4xMDIgMzkgMjA3LjIwMiAzOUgxODYuODAyQzE4NC45MDIgMzkgMTgzLjQwMiA0MC40IDE4My40MDIgNDIuMkMxODMuNDAyIDQ0IDE4NC45MDIgNDUuNCAxODYuODAyIDQ1LjRaIiBmaWxsPSIjMjYwMEZGIi8+CjxwYXRoIGQ9Ik0xOTEuNSA1Ny42OTk4SDIwNy4zQzIwOS4yIDU3LjY5OTggMjEwLjcgNTYuMjk5OCAyMTAuNyA1NC40OTk4QzIxMC43IDUyLjc5OTggMjA5LjIgNTEuMjk5OCAyMDcuMyA1MS4yOTk4SDE5MC43QzE5MC41IDUxLjI5OTggMTg4LjYgNTEuMjk5OCAxODcuOCA1MS41OTk4QzE4Ny4zIDUxLjc5OTggMTg2LjggNTEuOTk5OCAxODYuMyA1Mi4yOTk4QzE4NC42IDUzLjM5OTggMTgzLjYgNTUuMjk5OCAxODMuNSA1Ny4zOTk4VjYyLjU5OThWNjQuODk5OEMxODMuNyA2Ni43OTk4IDE4NC43IDY4LjQ5OTggMTg2LjIgNjkuNDk5OEMxODYuNiA2OS43OTk4IDE4Ny4xIDY5Ljk5OTggMTg3LjcgNzAuMTk5OEMxODguNSA3MC40OTk4IDE5MC41IDcwLjQ5OTggMTkwLjYgNzAuNDk5OEgyMDcuM0MyMDkuMiA3MC40OTk4IDIxMC43IDY5LjA5OTggMjEwLjcgNjcuMjk5OEMyMTAuNyA2NS40OTk4IDIwOS4yIDY0LjA5OTggMjA3LjMgNjQuMDk5OEgxOTEuNUMxOTAuOCA2NC4wOTk4IDE4OS45IDYzLjY5OTggMTg5LjkgNjIuNzk5OFY1OC43OTk4QzE4OS44IDU3Ljk5OTggMTkwLjMgNTcuNjk5OCAxOTEuNSA1Ny42OTk4WiIgZmlsbD0iIzI2MDBGRiIvPgo8cGF0aCBkPSJNNTEuMjAwOCAzOUM0OS4zMDA4IDM5IDQ3LjgwMDggNDAuNSA0Ny44MDA4IDQyLjRWNjcuMUM0Ny44MDA4IDY5IDQ5LjMwMDggNzAuNSA1MS4yMDA4IDcwLjVDNTMuMTAwOCA3MC41IDU0LjYwMDggNjkgNTQuNjAwOCA2Ny4xVjQyLjRDNTQuNjAwOCA0MC41IDUzLjEwMDggMzkgNTEuMjAwOCAzOVoiIGZpbGw9IiMyNjAwRkYiLz4KPHBhdGggZD0iTTc3LjkwMDggNjQuNTk5OUw2Ni41MDA4IDU0Ljc5OTlMNzcuODAwOCA0NS4wOTk5Qzc5LjEwMDggNDMuOTk5OSA3OS40MDA4IDQyLjE5OTkgNzguNjAwOCA0MC43OTk5Qzc4LjEwMDggMzkuODk5OSA3Ny4yMDA4IDM5LjI5OTkgNzYuMjAwOCAzOS4wOTk5Qzc1LjIwMDggMzguODk5OSA3NC4yMDA4IDM5LjE5OTkgNzMuNDAwOCAzOS44OTk5TDU3LjMwMDggNTMuNjk5OUM1Ny4wMDA4IDUzLjk5OTkgNTYuODAwOCA1NC4zOTk5IDU2LjgwMDggNTQuNzk5OUM1Ni44MDA4IDU1LjE5OTkgNTcuMDAwOCA1NS41OTk5IDU3LjMwMDggNTUuODk5OUw3My4zMDA4IDY5LjY5OTlDNzQuMDAwOCA3MC4yOTk5IDc0LjgwMDggNzAuNTk5OSA3NS42MDA4IDcwLjU5OTlDNzYuMzAwOCA3MC41OTk5IDc3LjAwMDggNzAuMzk5OSA3Ny42MDA4IDY5Ljg5OTlDNzguNDAwOCA2OS4yOTk5IDc4LjkwMDggNjguMjk5OSA3OC45MDA4IDY3LjI5OTlDNzkuMTAwOCA2Ni4xOTk5IDc4LjYwMDggNjUuMTk5OSA3Ny45MDA4IDY0LjU5OTlaIiBmaWxsPSIjMjYwMEZGIi8+CjxwYXRoIGQ9Ik0yNDAuMzk5IDM5QzIzOC4yOTkgMzkgMjM2Ljk5OSA0MC44IDIzNi45OTkgNDIuMlY2MS4zQzIzMy45OTkgNTYuNSAyMjUuMTk5IDQyLjQgMjI0Ljk5OSA0Mi4yQzIyNC4xOTkgNDEgMjIyLjI5OSAzOSAyMTkuNzk5IDM5QzIxNi42OTkgMzkgMjE0LjE5OSA0MS43IDIxNC4xOTkgNDUuMVY2Ny4yQzIxNC4xOTkgNjkuMSAyMTUuNTk5IDcwLjYgMjE3LjM5OSA3MC42QzIxOS4xOTkgNzAuNiAyMjAuNTk5IDY5LjEgMjIwLjU5OSA2Ny4yVjQ3LjRMMjMyLjc5OSA2Ni43QzIzNC4wOTkgNjguNSAyMzUuNjk5IDcwLjYgMjM4LjI5OSA3MC42QzI0MS41OTkgNzAuNiAyNDMuODk5IDY4LjIgMjQzLjg5OSA2NC41VjQyLjRDMjQzLjc5OSA0MC41IDI0Mi4yOTkgMzkgMjQwLjM5OSAzOVoiIGZpbGw9IiMyNjAwRkYiLz4KPHBhdGggZD0iTTIzOC40IDE2OS44SDUzLjFDNTAgMTY5LjggNDcuNSAxNjcuMyA0Ny41IDE2NC4yVjgyLjQwMDFDNDcuNSA3OS4zMDAxIDUwIDc2LjggNTMuMSA3Ni44SDIzOC4zQzI0MS40IDc2LjggMjQzLjkgNzkuMzAwMSAyNDMuOSA4Mi40MDAxVjE2NC4yQzI0NCAxNjcuMyAyNDEuNSAxNjkuOCAyMzguNCAxNjkuOFoiIGZpbGw9IiMyNjAwRkYiLz4KPHBhdGggZD0iTTc1Ljk5ODQgOTIuNDAwMUM3Mi42OTg0IDkyLjQwMDEgNjkuODk4NCA5NS4xMDAxIDY5Ljg5ODQgOTguNTAwMVYxNDguMUM2OS44OTg0IDE1MS40IDcyLjU5ODQgMTU0LjIgNzUuOTk4NCAxNTQuMkM3OS4yOTg0IDE1NC4yIDgyLjA5ODQgMTUxLjUgODIuMDk4NCAxNDguMVY5OC41MDAxQzgxLjk5ODQgOTUuMTAwMSA3OS4yOTg0IDkyLjQwMDEgNzUuOTk4NCA5Mi40MDAxWiIgZmlsbD0id2hpdGUiLz4KPHBhdGggZD0iTTExOS45OTcgOTIuNDAwMUMxMTguNTk3IDkyLjQwMDEgMTE3LjI5NyA5Mi45MDAxIDExNi4xOTcgOTMuOTAwMUwxMDQuOTk3IDEwNEMxMDQuODk3IDEwNCAxMDQuODk3IDEwNC4xIDEwNC44OTcgMTA0LjFMODYuMTk2OSAxMjFDODUuNDk2OSAxMjEuNiA4NC43OTY5IDEyMi4yIDg0Ljc5NjkgMTIzLjJDODQuNzk2OSAxMjQuNCA4NS42OTY5IDEyNS4yIDg2LjM5NjkgMTI1LjhDODYuNTk2OSAxMjYgODYuNzk2OSAxMjYuMSA4Ni44OTY5IDEyNi4zTDEwMC4wOTcgMTM3LjdMMTE2LjA5NyAxNTIuOUMxMTcuMjk3IDE1My45IDExOC42OTcgMTU0LjQgMTIwLjI5NyAxNTQuMkMxMjEuNzk3IDE1NC4xIDEyMy4xOTcgMTUzLjMgMTI0LjE5NyAxNTIuMUMxMjYuMTk3IDE0OS42IDEyNS44OTcgMTQ1LjggMTIzLjQ5NyAxNDMuN0wxMDEuMjk3IDEyMy4xTDExMi4xOTcgMTEzLjNDMTEyLjM5NyAxMTMuMiAxMTIuNDk3IDExMy4xIDExMi41OTcgMTEzTDEyMy43OTcgMTAyLjlDMTI2LjE5NyAxMDAuNyAxMjYuMzk3IDk3LjAwMDEgMTI0LjM5NyA5NC41MDAxQzEyMy4zOTcgOTMuMzAwMSAxMjEuOTk3IDkyLjYwMDEgMTIwLjQ5NyA5Mi41MDAxQzEyMC4yOTcgOTIuNDAwMSAxMjAuMTk3IDkyLjQwMDEgMTE5Ljk5NyA5Mi40MDAxWiIgZmlsbD0id2hpdGUiLz4KPHBhdGggZD0iTTE0OC42IDkyLjQwMDFIMTQ4LjVIMTQ4LjRIMTQyLjlDMTM5LjQgOTIuNDAwMSAxMzYuNSA5NS4yMDAxIDEzNi41IDk4LjgwMDFDMTM2LjUgMTAyLjIgMTM5LjIgMTA1IDE0Mi41IDEwNS4xVjE0OC4xQzE0Mi41IDE1MS40IDE0NS4yIDE1NC4yIDE0OC42IDE1NC4yQzE1MS45IDE1NC4yIDE1NC43IDE1MS41IDE1NC43IDE0OC4xVjk4LjgwMDFWOTguNTAwMUMxNTQuNyA5NS4xMDAxIDE1MiA5Mi40MDAxIDE0OC42IDkyLjQwMDFaIiBmaWxsPSJ3aGl0ZSIvPgo8cGF0aCBkPSJNMjI1LjA5NyAxMjAuNUwyMTAuNzk3IDk1LjYwMDFDMjA5Ljc5NyA5My43MDAxIDIwNy43OTcgOTIuNjAwMSAyMDUuNjk3IDkyLjYwMDFIMTkxLjg5N0gxOTEuNjk3SDE3Ny44OTdDMTc1Ljc5NyA5Mi42MDAxIDE3My43OTcgOTMuNzAwMSAxNzIuNzk3IDk1LjYwMDFMMTU4LjQ5NyAxMjAuNUMxNTcuOTk3IDEyMS4zIDE1Ny43OTcgMTIyLjEgMTU3Ljc5NyAxMjNDMTU3Ljc5NyAxMjMuOSAxNTcuOTk3IDEyNC44IDE1OC40OTcgMTI1LjZMMTcyLjc5NyAxNTAuNUMxNzMuODk3IDE1Mi40IDE3NS43OTcgMTUzLjUgMTc3Ljg5NyAxNTMuNUMxNzcuODk3IDE1My41IDE4NC43OTcgMTUzLjUgMTkxLjY5NyAxNTMuNUMxOTEuNzk3IDE1My41IDE5MS43OTcgMTUzLjUgMTkxLjg5NyAxNTMuNUMxOTguNzk3IDE1My41IDIwNS42OTcgMTUzLjUgMjA1LjY5NyAxNTMuNUMyMDcuNzk3IDE1My41IDIwOS43OTcgMTUyLjQgMjEwLjc5NyAxNTAuNUwyMjUuMDk3IDEyNS42QzIyNS41OTcgMTI0LjggMjI1Ljc5NyAxMjMuOSAyMjUuNzk3IDEyM0MyMjUuNzk3IDEyMi4yIDIyNS41OTcgMTIxLjMgMjI1LjA5NyAxMjAuNVpNMjAyLjE5NyAxNDEuNUgxOTEuODk3SDE5MS42OTdIMTgxLjM5N0wxNzAuODk3IDEyMy4xTDE4MS4zOTcgMTA0LjhIMTkxLjY5N0gxOTEuODk3SDIwMi4xOTdMMjEyLjY5NyAxMjMuMUwyMDIuMTk3IDE0MS41WiIgZmlsbD0id2hpdGUiLz4KPC9zdmc+Cg==;" parent="fqkrjUcv9Db4QlrvQPdM-13" vertex="1">
          <mxGeometry x="10" y="51" width="55.96" height="40" as="geometry" />
        </mxCell>
        <mxCell id="fqkrjUcv9Db4QlrvQPdM-12" value="database&lt;div&gt;secret&lt;/div&gt;" style="aspect=fixed;sketch=0;html=1;dashed=0;whitespace=wrap;verticalLabelPosition=bottom;verticalAlign=top;fillColor=#2875E2;strokeColor=#ffffff;points=[[0.005,0.63,0],[0.1,0.2,0],[0.9,0.2,0],[0.5,0,0],[0.995,0.63,0],[0.72,0.99,0],[0.5,1,0],[0.28,0.99,0]];shape=mxgraph.kubernetes.icon2;prIcon=secret" parent="fqkrjUcv9Db4QlrvQPdM-13" vertex="1">
          <mxGeometry x="170" y="56" width="31.25" height="30" as="geometry" />
        </mxCell>
        <mxCell id="fqkrjUcv9Db4QlrvQPdM-15" value="" style="image;aspect=fixed;html=1;points=[];align=center;fontSize=12;image=img/lib/azure2/compute/Kubernetes_Services.svg;" parent="fqkrjUcv9Db4QlrvQPdM-13" vertex="1">
          <mxGeometry x="-30" y="-20" width="68" height="60" as="geometry" />
        </mxCell>
        <mxCell id="fqkrjUcv9Db4QlrvQPdM-16" value="Kanister pod&lt;div&gt;(ephemeral)&lt;br&gt;&lt;div&gt;&lt;br&gt;&lt;/div&gt;&lt;/div&gt;" style="aspect=fixed;sketch=0;html=1;dashed=0;whitespace=wrap;verticalLabelPosition=bottom;verticalAlign=top;fillColor=#2875E2;strokeColor=#ffffff;points=[[0.005,0.63,0],[0.1,0.2,0],[0.9,0.2,0],[0.5,0,0],[0.995,0.63,0],[0.72,0.99,0],[0.5,1,0],[0.28,0.99,0]];shape=mxgraph.kubernetes.icon2;kubernetesLabel=1;prIcon=pod" parent="fqkrjUcv9Db4QlrvQPdM-13" vertex="1">
          <mxGeometry x="22.360000000000014" y="185" width="31.25" height="30" as="geometry" />
        </mxCell>
        <mxCell id="fqkrjUcv9Db4QlrvQPdM-23" value="" style="endArrow=classic;html=1;rounded=0;entryX=0.5;entryY=0;entryDx=0;entryDy=0;entryPerimeter=0;exitX=0.5;exitY=1;exitDx=0;exitDy=0;" parent="fqkrjUcv9Db4QlrvQPdM-13" source="fqkrjUcv9Db4QlrvQPdM-4" target="fqkrjUcv9Db4QlrvQPdM-16" edge="1">
          <mxGeometry width="50" height="50" relative="1" as="geometry">
            <mxPoint x="180" y="180" as="sourcePoint" />
            <mxPoint x="230" y="130" as="targetPoint" />
          </mxGeometry>
        </mxCell>
        <mxCell id="fqkrjUcv9Db4QlrvQPdM-24" value="#3 exec BP&lt;div&gt;with db secret&lt;/div&gt;" style="edgeLabel;html=1;align=center;verticalAlign=middle;resizable=0;points=[];" parent="fqkrjUcv9Db4QlrvQPdM-23" vertex="1" connectable="0">
          <mxGeometry x="-0.1035" y="-1" relative="1" as="geometry">
            <mxPoint as="offset" />
          </mxGeometry>
        </mxCell>
        <mxCell id="fqkrjUcv9Db4QlrvQPdM-19" value="" style="endArrow=classic;html=1;rounded=0;exitX=1;exitY=0.5;exitDx=0;exitDy=0;" parent="1" edge="1">
          <mxGeometry width="50" height="50" relative="1" as="geometry">
            <mxPoint x="236.96000000000004" y="274.9999999999999" as="sourcePoint" />
            <mxPoint x="331" y="274" as="targetPoint" />
          </mxGeometry>
        </mxCell>
        <mxCell id="fqkrjUcv9Db4QlrvQPdM-20" value="#1 backup" style="edgeLabel;html=1;align=center;verticalAlign=middle;resizable=0;points=[];" parent="fqkrjUcv9Db4QlrvQPdM-19" vertex="1" connectable="0">
          <mxGeometry x="-0.3236" relative="1" as="geometry">
            <mxPoint as="offset" />
          </mxGeometry>
        </mxCell>
        <mxCell id="fqkrjUcv9Db4QlrvQPdM-21" value="" style="endArrow=classic;html=1;rounded=0;" parent="1" edge="1">
          <mxGeometry width="50" height="50" relative="1" as="geometry">
            <mxPoint x="330" y="291" as="sourcePoint" />
            <mxPoint x="236" y="291" as="targetPoint" />
          </mxGeometry>
        </mxCell>
        <mxCell id="fqkrjUcv9Db4QlrvQPdM-22" value="#2 blueprint" style="edgeLabel;html=1;align=center;verticalAlign=middle;resizable=0;points=[];" parent="fqkrjUcv9Db4QlrvQPdM-21" vertex="1" connectable="0">
          <mxGeometry x="-0.0816" y="-1" relative="1" as="geometry">
            <mxPoint as="offset" />
          </mxGeometry>
        </mxCell>
        <mxCell id="fqkrjUcv9Db4QlrvQPdM-27" value="" style="endArrow=classic;html=1;rounded=0;" parent="1" edge="1">
          <mxGeometry width="50" height="50" relative="1" as="geometry">
            <mxPoint x="640" y="421" as="sourcePoint" />
            <mxPoint x="230" y="421" as="targetPoint" />
          </mxGeometry>
        </mxCell>
        <mxCell id="fqkrjUcv9Db4QlrvQPdM-29" value="# 5 dump" style="edgeLabel;html=1;align=center;verticalAlign=middle;resizable=0;points=[];" parent="fqkrjUcv9Db4QlrvQPdM-27" vertex="1" connectable="0">
          <mxGeometry x="-0.0767" y="1" relative="1" as="geometry">
            <mxPoint as="offset" />
          </mxGeometry>
        </mxCell>
        <mxCell id="fqkrjUcv9Db4QlrvQPdM-30" value="" style="endArrow=classic;html=1;rounded=0;entryX=-0.053;entryY=0.528;entryDx=0;entryDy=0;entryPerimeter=0;" parent="1" target="fqkrjUcv9Db4QlrvQPdM-26" edge="1">
          <mxGeometry width="50" height="50" relative="1" as="geometry">
            <mxPoint x="240" y="440" as="sourcePoint" />
            <mxPoint x="450" y="370" as="targetPoint" />
          </mxGeometry>
        </mxCell>
        <mxCell id="fqkrjUcv9Db4QlrvQPdM-31" value="# 6 Push dump&amp;nbsp;&lt;div&gt;Encrypted/Compressed&lt;/div&gt;&lt;div&gt;Immutable&lt;/div&gt;" style="edgeLabel;html=1;align=center;verticalAlign=middle;resizable=0;points=[];" parent="fqkrjUcv9Db4QlrvQPdM-30" vertex="1" connectable="0">
          <mxGeometry x="-0.2959" relative="1" as="geometry">
            <mxPoint x="37" y="14" as="offset" />
          </mxGeometry>
        </mxCell>
        <mxCell id="fqkrjUcv9Db4QlrvQPdM-32" value="Tenant 1" style="swimlane;whiteSpace=wrap;html=1;" parent="1" vertex="1">
          <mxGeometry x="80" y="120" width="720" height="560" as="geometry" />
        </mxCell>
        <mxCell id="fqkrjUcv9Db4QlrvQPdM-26" value="Storage account&lt;div&gt;container&amp;nbsp;&amp;nbsp;&lt;div&gt;with version-level immutability&lt;/div&gt;&lt;/div&gt;" style="image;aspect=fixed;html=1;points=[];align=center;fontSize=12;image=img/lib/azure2/storage/Storage_Accounts.svg;" parent="fqkrjUcv9Db4QlrvQPdM-32" vertex="1">
          <mxGeometry x="570" y="450" width="65" height="52" as="geometry" />
        </mxCell>
        <mxCell id="rvC2zTHNvgL8x_OiFzDS-1" value="Postgres flexible server&amp;nbsp;&lt;div&gt;Multiple databases&lt;/div&gt;" style="image;aspect=fixed;html=1;points=[];align=center;fontSize=12;image=img/lib/azure2/databases/SQL_Server.svg;" parent="fqkrjUcv9Db4QlrvQPdM-32" vertex="1">
          <mxGeometry x="568.5" y="110" width="68" height="68" as="geometry" />
        </mxCell>
        <mxCell id="d9f5OGUQb58HGQMxwfjP-1" value="" style="endArrow=classic;html=1;rounded=0;entryX=0.386;entryY=-0.028;entryDx=0;entryDy=0;entryPerimeter=0;" parent="1" target="fqkrjUcv9Db4QlrvQPdM-5" edge="1">
          <mxGeometry width="50" height="50" relative="1" as="geometry">
            <mxPoint x="676" y="340" as="sourcePoint" />
            <mxPoint x="450" y="450" as="targetPoint" />
          </mxGeometry>
        </mxCell>
      </root>
    </mxGraphModel>
  </diagram>
  <diagram name="Restore" id="uf0hZkAZqLKatIzqYxLJ">
    <mxGraphModel dx="1191" dy="791" grid="1" gridSize="10" guides="1" tooltips="1" connect="1" arrows="1" fold="1" page="1" pageScale="1" pageWidth="827" pageHeight="1169" math="0" shadow="0">
      <root>
        <mxCell id="iPqpEbZTu8c4pnwVvDJN-0" />
        <mxCell id="iPqpEbZTu8c4pnwVvDJN-1" parent="iPqpEbZTu8c4pnwVvDJN-0" />
        <mxCell id="iPqpEbZTu8c4pnwVvDJN-2" value="vnet&amp;nbsp;" style="swimlane;whiteSpace=wrap;html=1;" parent="iPqpEbZTu8c4pnwVvDJN-1" vertex="1">
          <mxGeometry x="120" y="150" width="640" height="400" as="geometry" />
        </mxCell>
        <mxCell id="iPqpEbZTu8c4pnwVvDJN-3" value="Postgres flexible server&amp;nbsp;&lt;div&gt;Multiple databases&lt;/div&gt;" style="image;aspect=fixed;html=1;points=[];align=center;fontSize=12;image=img/lib/azure2/databases/SQL_Server.svg;" parent="iPqpEbZTu8c4pnwVvDJN-2" vertex="1">
          <mxGeometry x="530" y="219" width="68" height="68" as="geometry" />
        </mxCell>
        <mxCell id="iPqpEbZTu8c4pnwVvDJN-4" value="" style="endArrow=classic;html=1;rounded=0;entryX=0.022;entryY=0.588;entryDx=0;entryDy=0;entryPerimeter=0;" parent="iPqpEbZTu8c4pnwVvDJN-2" target="LF-GGxsFHxLPk3IsFwMc-0" edge="1">
          <mxGeometry width="50" height="50" relative="1" as="geometry">
            <mxPoint x="110" y="249" as="sourcePoint" />
            <mxPoint x="530" y="248.03200000000004" as="targetPoint" />
          </mxGeometry>
        </mxCell>
        <mxCell id="iPqpEbZTu8c4pnwVvDJN-5" value="#6 restore&lt;div&gt;database&lt;/div&gt;" style="edgeLabel;html=1;align=center;verticalAlign=middle;resizable=0;points=[];" parent="iPqpEbZTu8c4pnwVvDJN-4" vertex="1" connectable="0">
          <mxGeometry x="0.0803" relative="1" as="geometry">
            <mxPoint as="offset" />
          </mxGeometry>
        </mxCell>
        <mxCell id="iPqpEbZTu8c4pnwVvDJN-6" value="AKS" style="swimlane;whiteSpace=wrap;html=1;" parent="iPqpEbZTu8c4pnwVvDJN-2" vertex="1">
          <mxGeometry x="50" y="60" width="240" height="260" as="geometry" />
        </mxCell>
        <mxCell id="iPqpEbZTu8c4pnwVvDJN-7" value="" style="shape=image;aspect=fixed;image=data:image/svg+xml,PHN2ZyB3aWR0aD0iMjkxIiBoZWlnaHQ9IjIwOCIgdmlld0JveD0iMCAwIDI5MSAyMDgiIGZpbGw9Im5vbmUiIHhtbG5zPSJodHRwOi8vd3d3LnczLm9yZy8yMDAwL3N2ZyI+CjxyZWN0IHdpZHRoPSIyOTEiIGhlaWdodD0iMjA4IiBmaWxsPSJ3aGl0ZSIvPgo8cGF0aCBkPSJNMTA1Ljg5OSA0Mi42QzEwNC44OTkgNDAuMyAxMDIuNzk5IDM5IDk5Ljk5OTIgMzlDOTcuOTk5MiAzOSA5NS4xOTkyIDQwLjEgOTMuNzk5MiA0My40TDgzLjQ5OTIgNjQuOUM4Mi4zOTkyIDY2LjggODIuNzk5MiA2OC4xIDgzLjI5OTIgNjguOUM4My45OTkyIDcwIDg1LjM5OTIgNzAuNSA4Ni4wOTkyIDcwLjVIODYuMTk5MkM4Ny40OTkyIDcwLjUgODguNjk5MiA2OS43IDg5LjI5OTIgNjguNEM4OS40OTkyIDY3LjkgOTAuMjk5MiA2Ni4yIDkwLjk5OTIgNjQuOEM5MS40OTkyIDYzLjggOTEuNzk5MiA2My4yIDkxLjg5OTIgNjIuOUg5OS45OTkyQzEwMS43OTkgNjIuOSAxMDMuMTk5IDYxLjQgMTAzLjE5OSA1OS41QzEwMy4xOTkgNTcuNiAxMDEuNzk5IDU2LjEgOTkuOTk5MiA1Ni4xSDk1LjA5OTJMOTkuNTk5MiA0Ni44VjQ2LjdDOTkuNzk5MiA0Ni4zIDk5Ljg5OTIgNDYuMyA5OS43OTkyIDQ2LjNDOTkuODk5MiA0Ni4zIDk5Ljk5OTIgNDYuMyA5OS45OTkyIDQ2LjNDMTAwLjA5OSA0Ni4zIDEwMC4xOTkgNDYuNyAxMDAuMjk5IDQ2LjhMMTEwLjU5OSA2OC40QzExMC44OTkgNjkgMTExLjY5OSA3MCAxMTIuODk5IDcwLjRDMTEzLjc5OSA3MC42IDExNC43OTkgNzAuNSAxMTUuNjk5IDY5LjhDMTE3LjE5OSA2OC45IDExNy40OTkgNjYuOSAxMTYuNTk5IDY1LjJMMTA1Ljg5OSA0Mi42WiIgZmlsbD0iIzI2MDBGRiIvPgo8cGF0aCBkPSJNMTM4LjIwMSA1MS4zOTk5SDEyOS41MDFDMTI3LjQwMSA1MS4zOTk5IDEyNi4wMDEgNTAuMjk5OSAxMjYuMDAxIDQ4LjM5OTlDMTI2LjAwMSA0Ni40OTk5IDEyNy4zMDEgNDUuMzk5OSAxMjkuNTAxIDQ1LjM5OTlIMTQzLjYwMUMxNDUuNjAxIDQ1LjM5OTkgMTQ2LjYwMSA0My42OTk5IDE0Ni42MDEgNDIuMDk5OUMxNDYuNjAxIDQwLjI5OTkgMTQ1LjMwMSAzOC44OTk5IDE0My42MDEgMzguODk5OUgxMjkuNDAxQzEyMy45MDEgMzguODk5OSAxMTkuODAxIDQyLjk5OTkgMTE5LjgwMSA0OC4yOTk5QzExOS44MDEgNTMuNjk5OSAxMjMuOTAxIDU3LjY5OTkgMTI5LjQwMSA1Ny42OTk5SDEzOC4wMDFDMTQwLjEwMSA1Ny42OTk5IDE0MS41MDEgNTguOTk5OSAxNDEuNTAxIDYwLjg5OTlDMTQxLjUwMSA2Mi43OTk5IDE0MC4yMDEgNjMuODk5OSAxMzguMDAxIDYzLjg5OTlIMTI0LjAwMUMxMjIuMzAxIDYzLjg5OTkgMTIxLjAwMSA2NS4yOTk5IDEyMS4wMDEgNjcuMDk5OUMxMjEuMDAxIDY3Ljk5OTkgMTIxLjMwMSA2OC44OTk5IDEyMS45MDEgNjkuNDk5OUMxMjIuNTAxIDcwLjA5OTkgMTIzLjIwMSA3MC4zOTk5IDEyNC4wMDEgNzAuMzk5OUgxMzguMTAxQzE0My42MDEgNzAuMzk5OSAxNDcuNjAxIDY2LjM5OTkgMTQ3LjYwMSA2MC45OTk5QzE0Ny42MDEgNTUuNjk5OSAxNDMuNTAxIDUxLjM5OTkgMTM4LjIwMSA1MS4zOTk5WiIgZmlsbD0iIzI2MDBGRiIvPgo8cGF0aCBkPSJNMTc2LjQwMiAzOUgxNTMuNTAyQzE1MS42MDIgMzkgMTUwLjEwMiA0MC40IDE1MC4xMDIgNDIuMkMxNTAuMTAyIDQzLjkgMTUxLjYwMiA0NS40IDE1My41MDIgNDUuNEgxNjEuNjAyVjY3LjNDMTYxLjYwMiA2OS4yIDE2My4xMDIgNzAuNyAxNjUuMDAyIDcwLjdDMTY2LjkwMiA3MC43IDE2OC40MDIgNjkuMiAxNjguNDAyIDY3LjNWNDUuM0gxNzYuNTAyQzE3OC40MDIgNDUuMyAxNzkuOTAyIDQzLjkgMTc5LjkwMiA0Mi4xQzE3OS44MDIgNDAuNCAxNzguMzAyIDM5IDE3Ni40MDIgMzlaIiBmaWxsPSIjMjYwMEZGIi8+CjxwYXRoIGQ9Ik0xODYuODAyIDQ1LjRIMjA3LjIwMkMyMDkuMTAyIDQ1LjQgMjEwLjYwMiA0NCAyMTAuNjAyIDQyLjJDMjEwLjYwMiA0MC40IDIwOS4xMDIgMzkgMjA3LjIwMiAzOUgxODYuODAyQzE4NC45MDIgMzkgMTgzLjQwMiA0MC40IDE4My40MDIgNDIuMkMxODMuNDAyIDQ0IDE4NC45MDIgNDUuNCAxODYuODAyIDQ1LjRaIiBmaWxsPSIjMjYwMEZGIi8+CjxwYXRoIGQ9Ik0xOTEuNSA1Ny42OTk4SDIwNy4zQzIwOS4yIDU3LjY5OTggMjEwLjcgNTYuMjk5OCAyMTAuNyA1NC40OTk4QzIxMC43IDUyLjc5OTggMjA5LjIgNTEuMjk5OCAyMDcuMyA1MS4yOTk4SDE5MC43QzE5MC41IDUxLjI5OTggMTg4LjYgNTEuMjk5OCAxODcuOCA1MS41OTk4QzE4Ny4zIDUxLjc5OTggMTg2LjggNTEuOTk5OCAxODYuMyA1Mi4yOTk4QzE4NC42IDUzLjM5OTggMTgzLjYgNTUuMjk5OCAxODMuNSA1Ny4zOTk4VjYyLjU5OThWNjQuODk5OEMxODMuNyA2Ni43OTk4IDE4NC43IDY4LjQ5OTggMTg2LjIgNjkuNDk5OEMxODYuNiA2OS43OTk4IDE4Ny4xIDY5Ljk5OTggMTg3LjcgNzAuMTk5OEMxODguNSA3MC40OTk4IDE5MC41IDcwLjQ5OTggMTkwLjYgNzAuNDk5OEgyMDcuM0MyMDkuMiA3MC40OTk4IDIxMC43IDY5LjA5OTggMjEwLjcgNjcuMjk5OEMyMTAuNyA2NS40OTk4IDIwOS4yIDY0LjA5OTggMjA3LjMgNjQuMDk5OEgxOTEuNUMxOTAuOCA2NC4wOTk4IDE4OS45IDYzLjY5OTggMTg5LjkgNjIuNzk5OFY1OC43OTk4QzE4OS44IDU3Ljk5OTggMTkwLjMgNTcuNjk5OCAxOTEuNSA1Ny42OTk4WiIgZmlsbD0iIzI2MDBGRiIvPgo8cGF0aCBkPSJNNTEuMjAwOCAzOUM0OS4zMDA4IDM5IDQ3LjgwMDggNDAuNSA0Ny44MDA4IDQyLjRWNjcuMUM0Ny44MDA4IDY5IDQ5LjMwMDggNzAuNSA1MS4yMDA4IDcwLjVDNTMuMTAwOCA3MC41IDU0LjYwMDggNjkgNTQuNjAwOCA2Ny4xVjQyLjRDNTQuNjAwOCA0MC41IDUzLjEwMDggMzkgNTEuMjAwOCAzOVoiIGZpbGw9IiMyNjAwRkYiLz4KPHBhdGggZD0iTTc3LjkwMDggNjQuNTk5OUw2Ni41MDA4IDU0Ljc5OTlMNzcuODAwOCA0NS4wOTk5Qzc5LjEwMDggNDMuOTk5OSA3OS40MDA4IDQyLjE5OTkgNzguNjAwOCA0MC43OTk5Qzc4LjEwMDggMzkuODk5OSA3Ny4yMDA4IDM5LjI5OTkgNzYuMjAwOCAzOS4wOTk5Qzc1LjIwMDggMzguODk5OSA3NC4yMDA4IDM5LjE5OTkgNzMuNDAwOCAzOS44OTk5TDU3LjMwMDggNTMuNjk5OUM1Ny4wMDA4IDUzLjk5OTkgNTYuODAwOCA1NC4zOTk5IDU2LjgwMDggNTQuNzk5OUM1Ni44MDA4IDU1LjE5OTkgNTcuMDAwOCA1NS41OTk5IDU3LjMwMDggNTUuODk5OUw3My4zMDA4IDY5LjY5OTlDNzQuMDAwOCA3MC4yOTk5IDc0LjgwMDggNzAuNTk5OSA3NS42MDA4IDcwLjU5OTlDNzYuMzAwOCA3MC41OTk5IDc3LjAwMDggNzAuMzk5OSA3Ny42MDA4IDY5Ljg5OTlDNzguNDAwOCA2OS4yOTk5IDc4LjkwMDggNjguMjk5OSA3OC45MDA4IDY3LjI5OTlDNzkuMTAwOCA2Ni4xOTk5IDc4LjYwMDggNjUuMTk5OSA3Ny45MDA4IDY0LjU5OTlaIiBmaWxsPSIjMjYwMEZGIi8+CjxwYXRoIGQ9Ik0yNDAuMzk5IDM5QzIzOC4yOTkgMzkgMjM2Ljk5OSA0MC44IDIzNi45OTkgNDIuMlY2MS4zQzIzMy45OTkgNTYuNSAyMjUuMTk5IDQyLjQgMjI0Ljk5OSA0Mi4yQzIyNC4xOTkgNDEgMjIyLjI5OSAzOSAyMTkuNzk5IDM5QzIxNi42OTkgMzkgMjE0LjE5OSA0MS43IDIxNC4xOTkgNDUuMVY2Ny4yQzIxNC4xOTkgNjkuMSAyMTUuNTk5IDcwLjYgMjE3LjM5OSA3MC42QzIxOS4xOTkgNzAuNiAyMjAuNTk5IDY5LjEgMjIwLjU5OSA2Ny4yVjQ3LjRMMjMyLjc5OSA2Ni43QzIzNC4wOTkgNjguNSAyMzUuNjk5IDcwLjYgMjM4LjI5OSA3MC42QzI0MS41OTkgNzAuNiAyNDMuODk5IDY4LjIgMjQzLjg5OSA2NC41VjQyLjRDMjQzLjc5OSA0MC41IDI0Mi4yOTkgMzkgMjQwLjM5OSAzOVoiIGZpbGw9IiMyNjAwRkYiLz4KPHBhdGggZD0iTTIzOC40IDE2OS44SDUzLjFDNTAgMTY5LjggNDcuNSAxNjcuMyA0Ny41IDE2NC4yVjgyLjQwMDFDNDcuNSA3OS4zMDAxIDUwIDc2LjggNTMuMSA3Ni44SDIzOC4zQzI0MS40IDc2LjggMjQzLjkgNzkuMzAwMSAyNDMuOSA4Mi40MDAxVjE2NC4yQzI0NCAxNjcuMyAyNDEuNSAxNjkuOCAyMzguNCAxNjkuOFoiIGZpbGw9IiMyNjAwRkYiLz4KPHBhdGggZD0iTTc1Ljk5ODQgOTIuNDAwMUM3Mi42OTg0IDkyLjQwMDEgNjkuODk4NCA5NS4xMDAxIDY5Ljg5ODQgOTguNTAwMVYxNDguMUM2OS44OTg0IDE1MS40IDcyLjU5ODQgMTU0LjIgNzUuOTk4NCAxNTQuMkM3OS4yOTg0IDE1NC4yIDgyLjA5ODQgMTUxLjUgODIuMDk4NCAxNDguMVY5OC41MDAxQzgxLjk5ODQgOTUuMTAwMSA3OS4yOTg0IDkyLjQwMDEgNzUuOTk4NCA5Mi40MDAxWiIgZmlsbD0id2hpdGUiLz4KPHBhdGggZD0iTTExOS45OTcgOTIuNDAwMUMxMTguNTk3IDkyLjQwMDEgMTE3LjI5NyA5Mi45MDAxIDExNi4xOTcgOTMuOTAwMUwxMDQuOTk3IDEwNEMxMDQuODk3IDEwNCAxMDQuODk3IDEwNC4xIDEwNC44OTcgMTA0LjFMODYuMTk2OSAxMjFDODUuNDk2OSAxMjEuNiA4NC43OTY5IDEyMi4yIDg0Ljc5NjkgMTIzLjJDODQuNzk2OSAxMjQuNCA4NS42OTY5IDEyNS4yIDg2LjM5NjkgMTI1LjhDODYuNTk2OSAxMjYgODYuNzk2OSAxMjYuMSA4Ni44OTY5IDEyNi4zTDEwMC4wOTcgMTM3LjdMMTE2LjA5NyAxNTIuOUMxMTcuMjk3IDE1My45IDExOC42OTcgMTU0LjQgMTIwLjI5NyAxNTQuMkMxMjEuNzk3IDE1NC4xIDEyMy4xOTcgMTUzLjMgMTI0LjE5NyAxNTIuMUMxMjYuMTk3IDE0OS42IDEyNS44OTcgMTQ1LjggMTIzLjQ5NyAxNDMuN0wxMDEuMjk3IDEyMy4xTDExMi4xOTcgMTEzLjNDMTEyLjM5NyAxMTMuMiAxMTIuNDk3IDExMy4xIDExMi41OTcgMTEzTDEyMy43OTcgMTAyLjlDMTI2LjE5NyAxMDAuNyAxMjYuMzk3IDk3LjAwMDEgMTI0LjM5NyA5NC41MDAxQzEyMy4zOTcgOTMuMzAwMSAxMjEuOTk3IDkyLjYwMDEgMTIwLjQ5NyA5Mi41MDAxQzEyMC4yOTcgOTIuNDAwMSAxMjAuMTk3IDkyLjQwMDEgMTE5Ljk5NyA5Mi40MDAxWiIgZmlsbD0id2hpdGUiLz4KPHBhdGggZD0iTTE0OC42IDkyLjQwMDFIMTQ4LjVIMTQ4LjRIMTQyLjlDMTM5LjQgOTIuNDAwMSAxMzYuNSA5NS4yMDAxIDEzNi41IDk4LjgwMDFDMTM2LjUgMTAyLjIgMTM5LjIgMTA1IDE0Mi41IDEwNS4xVjE0OC4xQzE0Mi41IDE1MS40IDE0NS4yIDE1NC4yIDE0OC42IDE1NC4yQzE1MS45IDE1NC4yIDE1NC43IDE1MS41IDE1NC43IDE0OC4xVjk4LjgwMDFWOTguNTAwMUMxNTQuNyA5NS4xMDAxIDE1MiA5Mi40MDAxIDE0OC42IDkyLjQwMDFaIiBmaWxsPSJ3aGl0ZSIvPgo8cGF0aCBkPSJNMjI1LjA5NyAxMjAuNUwyMTAuNzk3IDk1LjYwMDFDMjA5Ljc5NyA5My43MDAxIDIwNy43OTcgOTIuNjAwMSAyMDUuNjk3IDkyLjYwMDFIMTkxLjg5N0gxOTEuNjk3SDE3Ny44OTdDMTc1Ljc5NyA5Mi42MDAxIDE3My43OTcgOTMuNzAwMSAxNzIuNzk3IDk1LjYwMDFMMTU4LjQ5NyAxMjAuNUMxNTcuOTk3IDEyMS4zIDE1Ny43OTcgMTIyLjEgMTU3Ljc5NyAxMjNDMTU3Ljc5NyAxMjMuOSAxNTcuOTk3IDEyNC44IDE1OC40OTcgMTI1LjZMMTcyLjc5NyAxNTAuNUMxNzMuODk3IDE1Mi40IDE3NS43OTcgMTUzLjUgMTc3Ljg5NyAxNTMuNUMxNzcuODk3IDE1My41IDE4NC43OTcgMTUzLjUgMTkxLjY5NyAxNTMuNUMxOTEuNzk3IDE1My41IDE5MS43OTcgMTUzLjUgMTkxLjg5NyAxNTMuNUMxOTguNzk3IDE1My41IDIwNS42OTcgMTUzLjUgMjA1LjY5NyAxNTMuNUMyMDcuNzk3IDE1My41IDIwOS43OTcgMTUyLjQgMjEwLjc5NyAxNTAuNUwyMjUuMDk3IDEyNS42QzIyNS41OTcgMTI0LjggMjI1Ljc5NyAxMjMuOSAyMjUuNzk3IDEyM0MyMjUuNzk3IDEyMi4yIDIyNS41OTcgMTIxLjMgMjI1LjA5NyAxMjAuNVpNMjAyLjE5NyAxNDEuNUgxOTEuODk3SDE5MS42OTdIMTgxLjM5N0wxNzAuODk3IDEyMy4xTDE4MS4zOTcgMTA0LjhIMTkxLjY5N0gxOTEuODk3SDIwMi4xOTdMMjEyLjY5NyAxMjMuMUwyMDIuMTk3IDE0MS41WiIgZmlsbD0id2hpdGUiLz4KPC9zdmc+Cg==;" parent="iPqpEbZTu8c4pnwVvDJN-6" vertex="1">
          <mxGeometry x="10" y="51" width="55.96" height="40" as="geometry" />
        </mxCell>
        <mxCell id="iPqpEbZTu8c4pnwVvDJN-8" value="database&lt;div&gt;secret&lt;/div&gt;" style="aspect=fixed;sketch=0;html=1;dashed=0;whitespace=wrap;verticalLabelPosition=bottom;verticalAlign=top;fillColor=#2875E2;strokeColor=#ffffff;points=[[0.005,0.63,0],[0.1,0.2,0],[0.9,0.2,0],[0.5,0,0],[0.995,0.63,0],[0.72,0.99,0],[0.5,1,0],[0.28,0.99,0]];shape=mxgraph.kubernetes.icon2;prIcon=secret" parent="iPqpEbZTu8c4pnwVvDJN-6" vertex="1">
          <mxGeometry x="170" y="56" width="31.25" height="30" as="geometry" />
        </mxCell>
        <mxCell id="iPqpEbZTu8c4pnwVvDJN-9" value="" style="image;aspect=fixed;html=1;points=[];align=center;fontSize=12;image=img/lib/azure2/compute/Kubernetes_Services.svg;" parent="iPqpEbZTu8c4pnwVvDJN-6" vertex="1">
          <mxGeometry x="-30" y="-20" width="68" height="60" as="geometry" />
        </mxCell>
        <mxCell id="iPqpEbZTu8c4pnwVvDJN-10" value="Kanister pod&lt;div&gt;(ephemeral)&lt;br&gt;&lt;div&gt;&lt;br&gt;&lt;/div&gt;&lt;/div&gt;" style="aspect=fixed;sketch=0;html=1;dashed=0;whitespace=wrap;verticalLabelPosition=bottom;verticalAlign=top;fillColor=#2875E2;strokeColor=#ffffff;points=[[0.005,0.63,0],[0.1,0.2,0],[0.9,0.2,0],[0.5,0,0],[0.995,0.63,0],[0.72,0.99,0],[0.5,1,0],[0.28,0.99,0]];shape=mxgraph.kubernetes.icon2;kubernetesLabel=1;prIcon=pod" parent="iPqpEbZTu8c4pnwVvDJN-6" vertex="1">
          <mxGeometry x="22.360000000000014" y="185" width="31.25" height="30" as="geometry" />
        </mxCell>
        <mxCell id="iPqpEbZTu8c4pnwVvDJN-11" value="" style="endArrow=classic;html=1;rounded=0;entryX=0.5;entryY=0;entryDx=0;entryDy=0;entryPerimeter=0;exitX=0.5;exitY=1;exitDx=0;exitDy=0;" parent="iPqpEbZTu8c4pnwVvDJN-6" source="iPqpEbZTu8c4pnwVvDJN-7" target="iPqpEbZTu8c4pnwVvDJN-10" edge="1">
          <mxGeometry width="50" height="50" relative="1" as="geometry">
            <mxPoint x="180" y="180" as="sourcePoint" />
            <mxPoint x="230" y="130" as="targetPoint" />
          </mxGeometry>
        </mxCell>
        <mxCell id="iPqpEbZTu8c4pnwVvDJN-12" value="#3 exec BP&lt;div&gt;with db secret&lt;/div&gt;" style="edgeLabel;html=1;align=center;verticalAlign=middle;resizable=0;points=[];" parent="iPqpEbZTu8c4pnwVvDJN-11" vertex="1" connectable="0">
          <mxGeometry x="-0.1035" y="-1" relative="1" as="geometry">
            <mxPoint as="offset" />
          </mxGeometry>
        </mxCell>
        <mxCell id="iPqpEbZTu8c4pnwVvDJN-13" value="" style="endArrow=classic;html=1;rounded=0;exitX=1;exitY=0.5;exitDx=0;exitDy=0;" parent="iPqpEbZTu8c4pnwVvDJN-1" edge="1">
          <mxGeometry width="50" height="50" relative="1" as="geometry">
            <mxPoint x="236.96000000000004" y="274.9999999999999" as="sourcePoint" />
            <mxPoint x="331" y="274" as="targetPoint" />
          </mxGeometry>
        </mxCell>
        <mxCell id="iPqpEbZTu8c4pnwVvDJN-14" value="#1 restore" style="edgeLabel;html=1;align=center;verticalAlign=middle;resizable=0;points=[];" parent="iPqpEbZTu8c4pnwVvDJN-13" vertex="1" connectable="0">
          <mxGeometry x="-0.3236" relative="1" as="geometry">
            <mxPoint as="offset" />
          </mxGeometry>
        </mxCell>
        <mxCell id="iPqpEbZTu8c4pnwVvDJN-15" value="" style="endArrow=classic;html=1;rounded=0;" parent="iPqpEbZTu8c4pnwVvDJN-1" edge="1">
          <mxGeometry width="50" height="50" relative="1" as="geometry">
            <mxPoint x="330" y="291" as="sourcePoint" />
            <mxPoint x="236" y="291" as="targetPoint" />
          </mxGeometry>
        </mxCell>
        <mxCell id="iPqpEbZTu8c4pnwVvDJN-16" value="#2 blueprint" style="edgeLabel;html=1;align=center;verticalAlign=middle;resizable=0;points=[];" parent="iPqpEbZTu8c4pnwVvDJN-15" vertex="1" connectable="0">
          <mxGeometry x="-0.0816" y="-1" relative="1" as="geometry">
            <mxPoint as="offset" />
          </mxGeometry>
        </mxCell>
        <mxCell id="iPqpEbZTu8c4pnwVvDJN-19" value="" style="endArrow=classic;html=1;rounded=0;" parent="iPqpEbZTu8c4pnwVvDJN-1" edge="1">
          <mxGeometry width="50" height="50" relative="1" as="geometry">
            <mxPoint x="240" y="450" as="sourcePoint" />
            <mxPoint x="640" y="600" as="targetPoint" />
          </mxGeometry>
        </mxCell>
        <mxCell id="iPqpEbZTu8c4pnwVvDJN-20" value="# 4 Pull dump&amp;nbsp;" style="edgeLabel;html=1;align=center;verticalAlign=middle;resizable=0;points=[];" parent="iPqpEbZTu8c4pnwVvDJN-19" vertex="1" connectable="0">
          <mxGeometry x="-0.2959" relative="1" as="geometry">
            <mxPoint x="37" y="14" as="offset" />
          </mxGeometry>
        </mxCell>
        <mxCell id="iPqpEbZTu8c4pnwVvDJN-21" value="Tenant 1" style="swimlane;whiteSpace=wrap;html=1;" parent="iPqpEbZTu8c4pnwVvDJN-1" vertex="1">
          <mxGeometry x="80" y="120" width="720" height="560" as="geometry" />
        </mxCell>
        <mxCell id="iPqpEbZTu8c4pnwVvDJN-22" value="Storage account&lt;div&gt;container&amp;nbsp;&amp;nbsp;&lt;div&gt;with version-level immutability&amp;nbsp;&lt;/div&gt;&lt;/div&gt;" style="image;aspect=fixed;html=1;points=[];align=center;fontSize=12;image=img/lib/azure2/storage/Storage_Accounts.svg;" parent="iPqpEbZTu8c4pnwVvDJN-21" vertex="1">
          <mxGeometry x="570" y="450" width="65" height="52" as="geometry" />
        </mxCell>
        <mxCell id="Pw4s4oO8pLUoilrwhWla-0" value="" style="endArrow=classic;html=1;rounded=0;" parent="iPqpEbZTu8c4pnwVvDJN-1" edge="1">
          <mxGeometry width="50" height="50" relative="1" as="geometry">
            <mxPoint x="640" y="580" as="sourcePoint" />
            <mxPoint x="250" y="430" as="targetPoint" />
          </mxGeometry>
        </mxCell>
        <mxCell id="Pw4s4oO8pLUoilrwhWla-1" value="# 5 dump" style="edgeLabel;html=1;align=center;verticalAlign=middle;resizable=0;points=[];" parent="Pw4s4oO8pLUoilrwhWla-0" vertex="1" connectable="0">
          <mxGeometry x="0.2347" y="1" relative="1" as="geometry">
            <mxPoint as="offset" />
          </mxGeometry>
        </mxCell>
        <mxCell id="LF-GGxsFHxLPk3IsFwMc-0" value="Postgres flexible server&amp;nbsp;&lt;div&gt;Multiple databases&lt;/div&gt;" style="image;aspect=fixed;html=1;points=[];align=center;fontSize=12;image=img/lib/azure2/databases/SQL_Server.svg;" parent="iPqpEbZTu8c4pnwVvDJN-1" vertex="1">
          <mxGeometry x="648.5" y="230" width="68" height="68" as="geometry" />
        </mxCell>
        <mxCell id="LF-GGxsFHxLPk3IsFwMc-1" value="" style="endArrow=classic;html=1;rounded=0;entryX=0.386;entryY=-0.028;entryDx=0;entryDy=0;entryPerimeter=0;" parent="iPqpEbZTu8c4pnwVvDJN-1" edge="1">
          <mxGeometry width="50" height="50" relative="1" as="geometry">
            <mxPoint x="676" y="340" as="sourcePoint" />
            <mxPoint x="676" y="367" as="targetPoint" />
          </mxGeometry>
        </mxCell>
      </root>
    </mxGraphModel>
  </diagram>
  <diagram name="restore-another-tenant" id="oCKXZUvB_rFDoi98UkZd">
    <mxGraphModel dx="1191" dy="791" grid="1" gridSize="10" guides="1" tooltips="1" connect="1" arrows="1" fold="1" page="1" pageScale="1" pageWidth="827" pageHeight="1169" math="0" shadow="0">
      <root>
        <mxCell id="alUi3gS7hyDzT1EbRRZN-0" />
        <mxCell id="alUi3gS7hyDzT1EbRRZN-1" parent="alUi3gS7hyDzT1EbRRZN-0" />
        <mxCell id="alUi3gS7hyDzT1EbRRZN-2" value="vnet&amp;nbsp;" style="swimlane;whiteSpace=wrap;html=1;" parent="alUi3gS7hyDzT1EbRRZN-1" vertex="1">
          <mxGeometry x="120" y="150" width="660" height="410" as="geometry" />
        </mxCell>
        <mxCell id="alUi3gS7hyDzT1EbRRZN-3" value="Postgres flexible server&amp;nbsp;&lt;div&gt;Multiple databases&lt;/div&gt;" style="image;aspect=fixed;html=1;points=[];align=center;fontSize=12;image=img/lib/azure2/databases/SQL_Server.svg;" parent="alUi3gS7hyDzT1EbRRZN-2" vertex="1">
          <mxGeometry x="530" y="219" width="68" height="68" as="geometry" />
        </mxCell>
        <mxCell id="alUi3gS7hyDzT1EbRRZN-4" value="" style="endArrow=classic;html=1;rounded=0;entryX=0;entryY=0.574;entryDx=0;entryDy=0;entryPerimeter=0;" parent="alUi3gS7hyDzT1EbRRZN-2" edge="1">
          <mxGeometry width="50" height="50" relative="1" as="geometry">
            <mxPoint x="110" y="249" as="sourcePoint" />
            <mxPoint x="530" y="248.03200000000004" as="targetPoint" />
          </mxGeometry>
        </mxCell>
        <mxCell id="alUi3gS7hyDzT1EbRRZN-5" value="#4 pg_dump&lt;div&gt;database&lt;/div&gt;" style="edgeLabel;html=1;align=center;verticalAlign=middle;resizable=0;points=[];" parent="alUi3gS7hyDzT1EbRRZN-4" vertex="1" connectable="0">
          <mxGeometry x="0.0803" relative="1" as="geometry">
            <mxPoint as="offset" />
          </mxGeometry>
        </mxCell>
        <mxCell id="alUi3gS7hyDzT1EbRRZN-6" value="AKS" style="swimlane;whiteSpace=wrap;html=1;" parent="alUi3gS7hyDzT1EbRRZN-2" vertex="1">
          <mxGeometry x="50" y="60" width="240" height="260" as="geometry" />
        </mxCell>
        <mxCell id="alUi3gS7hyDzT1EbRRZN-7" value="" style="shape=image;aspect=fixed;image=data:image/svg+xml,PHN2ZyB3aWR0aD0iMjkxIiBoZWlnaHQ9IjIwOCIgdmlld0JveD0iMCAwIDI5MSAyMDgiIGZpbGw9Im5vbmUiIHhtbG5zPSJodHRwOi8vd3d3LnczLm9yZy8yMDAwL3N2ZyI+CjxyZWN0IHdpZHRoPSIyOTEiIGhlaWdodD0iMjA4IiBmaWxsPSJ3aGl0ZSIvPgo8cGF0aCBkPSJNMTA1Ljg5OSA0Mi42QzEwNC44OTkgNDAuMyAxMDIuNzk5IDM5IDk5Ljk5OTIgMzlDOTcuOTk5MiAzOSA5NS4xOTkyIDQwLjEgOTMuNzk5MiA0My40TDgzLjQ5OTIgNjQuOUM4Mi4zOTkyIDY2LjggODIuNzk5MiA2OC4xIDgzLjI5OTIgNjguOUM4My45OTkyIDcwIDg1LjM5OTIgNzAuNSA4Ni4wOTkyIDcwLjVIODYuMTk5MkM4Ny40OTkyIDcwLjUgODguNjk5MiA2OS43IDg5LjI5OTIgNjguNEM4OS40OTkyIDY3LjkgOTAuMjk5MiA2Ni4yIDkwLjk5OTIgNjQuOEM5MS40OTkyIDYzLjggOTEuNzk5MiA2My4yIDkxLjg5OTIgNjIuOUg5OS45OTkyQzEwMS43OTkgNjIuOSAxMDMuMTk5IDYxLjQgMTAzLjE5OSA1OS41QzEwMy4xOTkgNTcuNiAxMDEuNzk5IDU2LjEgOTkuOTk5MiA1Ni4xSDk1LjA5OTJMOTkuNTk5MiA0Ni44VjQ2LjdDOTkuNzk5MiA0Ni4zIDk5Ljg5OTIgNDYuMyA5OS43OTkyIDQ2LjNDOTkuODk5MiA0Ni4zIDk5Ljk5OTIgNDYuMyA5OS45OTkyIDQ2LjNDMTAwLjA5OSA0Ni4zIDEwMC4xOTkgNDYuNyAxMDAuMjk5IDQ2LjhMMTEwLjU5OSA2OC40QzExMC44OTkgNjkgMTExLjY5OSA3MCAxMTIuODk5IDcwLjRDMTEzLjc5OSA3MC42IDExNC43OTkgNzAuNSAxMTUuNjk5IDY5LjhDMTE3LjE5OSA2OC45IDExNy40OTkgNjYuOSAxMTYuNTk5IDY1LjJMMTA1Ljg5OSA0Mi42WiIgZmlsbD0iIzI2MDBGRiIvPgo8cGF0aCBkPSJNMTM4LjIwMSA1MS4zOTk5SDEyOS41MDFDMTI3LjQwMSA1MS4zOTk5IDEyNi4wMDEgNTAuMjk5OSAxMjYuMDAxIDQ4LjM5OTlDMTI2LjAwMSA0Ni40OTk5IDEyNy4zMDEgNDUuMzk5OSAxMjkuNTAxIDQ1LjM5OTlIMTQzLjYwMUMxNDUuNjAxIDQ1LjM5OTkgMTQ2LjYwMSA0My42OTk5IDE0Ni42MDEgNDIuMDk5OUMxNDYuNjAxIDQwLjI5OTkgMTQ1LjMwMSAzOC44OTk5IDE0My42MDEgMzguODk5OUgxMjkuNDAxQzEyMy45MDEgMzguODk5OSAxMTkuODAxIDQyLjk5OTkgMTE5LjgwMSA0OC4yOTk5QzExOS44MDEgNTMuNjk5OSAxMjMuOTAxIDU3LjY5OTkgMTI5LjQwMSA1Ny42OTk5SDEzOC4wMDFDMTQwLjEwMSA1Ny42OTk5IDE0MS41MDEgNTguOTk5OSAxNDEuNTAxIDYwLjg5OTlDMTQxLjUwMSA2Mi43OTk5IDE0MC4yMDEgNjMuODk5OSAxMzguMDAxIDYzLjg5OTlIMTI0LjAwMUMxMjIuMzAxIDYzLjg5OTkgMTIxLjAwMSA2NS4yOTk5IDEyMS4wMDEgNjcuMDk5OUMxMjEuMDAxIDY3Ljk5OTkgMTIxLjMwMSA2OC44OTk5IDEyMS45MDEgNjkuNDk5OUMxMjIuNTAxIDcwLjA5OTkgMTIzLjIwMSA3MC4zOTk5IDEyNC4wMDEgNzAuMzk5OUgxMzguMTAxQzE0My42MDEgNzAuMzk5OSAxNDcuNjAxIDY2LjM5OTkgMTQ3LjYwMSA2MC45OTk5QzE0Ny42MDEgNTUuNjk5OSAxNDMuNTAxIDUxLjM5OTkgMTM4LjIwMSA1MS4zOTk5WiIgZmlsbD0iIzI2MDBGRiIvPgo8cGF0aCBkPSJNMTc2LjQwMiAzOUgxNTMuNTAyQzE1MS42MDIgMzkgMTUwLjEwMiA0MC40IDE1MC4xMDIgNDIuMkMxNTAuMTAyIDQzLjkgMTUxLjYwMiA0NS40IDE1My41MDIgNDUuNEgxNjEuNjAyVjY3LjNDMTYxLjYwMiA2OS4yIDE2My4xMDIgNzAuNyAxNjUuMDAyIDcwLjdDMTY2LjkwMiA3MC43IDE2OC40MDIgNjkuMiAxNjguNDAyIDY3LjNWNDUuM0gxNzYuNTAyQzE3OC40MDIgNDUuMyAxNzkuOTAyIDQzLjkgMTc5LjkwMiA0Mi4xQzE3OS44MDIgNDAuNCAxNzguMzAyIDM5IDE3Ni40MDIgMzlaIiBmaWxsPSIjMjYwMEZGIi8+CjxwYXRoIGQ9Ik0xODYuODAyIDQ1LjRIMjA3LjIwMkMyMDkuMTAyIDQ1LjQgMjEwLjYwMiA0NCAyMTAuNjAyIDQyLjJDMjEwLjYwMiA0MC40IDIwOS4xMDIgMzkgMjA3LjIwMiAzOUgxODYuODAyQzE4NC45MDIgMzkgMTgzLjQwMiA0MC40IDE4My40MDIgNDIuMkMxODMuNDAyIDQ0IDE4NC45MDIgNDUuNCAxODYuODAyIDQ1LjRaIiBmaWxsPSIjMjYwMEZGIi8+CjxwYXRoIGQ9Ik0xOTEuNSA1Ny42OTk4SDIwNy4zQzIwOS4yIDU3LjY5OTggMjEwLjcgNTYuMjk5OCAyMTAuNyA1NC40OTk4QzIxMC43IDUyLjc5OTggMjA5LjIgNTEuMjk5OCAyMDcuMyA1MS4yOTk4SDE5MC43QzE5MC41IDUxLjI5OTggMTg4LjYgNTEuMjk5OCAxODcuOCA1MS41OTk4QzE4Ny4zIDUxLjc5OTggMTg2LjggNTEuOTk5OCAxODYuMyA1Mi4yOTk4QzE4NC42IDUzLjM5OTggMTgzLjYgNTUuMjk5OCAxODMuNSA1Ny4zOTk4VjYyLjU5OThWNjQuODk5OEMxODMuNyA2Ni43OTk4IDE4NC43IDY4LjQ5OTggMTg2LjIgNjkuNDk5OEMxODYuNiA2OS43OTk4IDE4Ny4xIDY5Ljk5OTggMTg3LjcgNzAuMTk5OEMxODguNSA3MC40OTk4IDE5MC41IDcwLjQ5OTggMTkwLjYgNzAuNDk5OEgyMDcuM0MyMDkuMiA3MC40OTk4IDIxMC43IDY5LjA5OTggMjEwLjcgNjcuMjk5OEMyMTAuNyA2NS40OTk4IDIwOS4yIDY0LjA5OTggMjA3LjMgNjQuMDk5OEgxOTEuNUMxOTAuOCA2NC4wOTk4IDE4OS45IDYzLjY5OTggMTg5LjkgNjIuNzk5OFY1OC43OTk4QzE4OS44IDU3Ljk5OTggMTkwLjMgNTcuNjk5OCAxOTEuNSA1Ny42OTk4WiIgZmlsbD0iIzI2MDBGRiIvPgo8cGF0aCBkPSJNNTEuMjAwOCAzOUM0OS4zMDA4IDM5IDQ3LjgwMDggNDAuNSA0Ny44MDA4IDQyLjRWNjcuMUM0Ny44MDA4IDY5IDQ5LjMwMDggNzAuNSA1MS4yMDA4IDcwLjVDNTMuMTAwOCA3MC41IDU0LjYwMDggNjkgNTQuNjAwOCA2Ny4xVjQyLjRDNTQuNjAwOCA0MC41IDUzLjEwMDggMzkgNTEuMjAwOCAzOVoiIGZpbGw9IiMyNjAwRkYiLz4KPHBhdGggZD0iTTc3LjkwMDggNjQuNTk5OUw2Ni41MDA4IDU0Ljc5OTlMNzcuODAwOCA0NS4wOTk5Qzc5LjEwMDggNDMuOTk5OSA3OS40MDA4IDQyLjE5OTkgNzguNjAwOCA0MC43OTk5Qzc4LjEwMDggMzkuODk5OSA3Ny4yMDA4IDM5LjI5OTkgNzYuMjAwOCAzOS4wOTk5Qzc1LjIwMDggMzguODk5OSA3NC4yMDA4IDM5LjE5OTkgNzMuNDAwOCAzOS44OTk5TDU3LjMwMDggNTMuNjk5OUM1Ny4wMDA4IDUzLjk5OTkgNTYuODAwOCA1NC4zOTk5IDU2LjgwMDggNTQuNzk5OUM1Ni44MDA4IDU1LjE5OTkgNTcuMDAwOCA1NS41OTk5IDU3LjMwMDggNTUuODk5OUw3My4zMDA4IDY5LjY5OTlDNzQuMDAwOCA3MC4yOTk5IDc0LjgwMDggNzAuNTk5OSA3NS42MDA4IDcwLjU5OTlDNzYuMzAwOCA3MC41OTk5IDc3LjAwMDggNzAuMzk5OSA3Ny42MDA4IDY5Ljg5OTlDNzguNDAwOCA2OS4yOTk5IDc4LjkwMDggNjguMjk5OSA3OC45MDA4IDY3LjI5OTlDNzkuMTAwOCA2Ni4xOTk5IDc4LjYwMDggNjUuMTk5OSA3Ny45MDA4IDY0LjU5OTlaIiBmaWxsPSIjMjYwMEZGIi8+CjxwYXRoIGQ9Ik0yNDAuMzk5IDM5QzIzOC4yOTkgMzkgMjM2Ljk5OSA0MC44IDIzNi45OTkgNDIuMlY2MS4zQzIzMy45OTkgNTYuNSAyMjUuMTk5IDQyLjQgMjI0Ljk5OSA0Mi4yQzIyNC4xOTkgNDEgMjIyLjI5OSAzOSAyMTkuNzk5IDM5QzIxNi42OTkgMzkgMjE0LjE5OSA0MS43IDIxNC4xOTkgNDUuMVY2Ny4yQzIxNC4xOTkgNjkuMSAyMTUuNTk5IDcwLjYgMjE3LjM5OSA3MC42QzIxOS4xOTkgNzAuNiAyMjAuNTk5IDY5LjEgMjIwLjU5OSA2Ny4yVjQ3LjRMMjMyLjc5OSA2Ni43QzIzNC4wOTkgNjguNSAyMzUuNjk5IDcwLjYgMjM4LjI5OSA3MC42QzI0MS41OTkgNzAuNiAyNDMuODk5IDY4LjIgMjQzLjg5OSA2NC41VjQyLjRDMjQzLjc5OSA0MC41IDI0Mi4yOTkgMzkgMjQwLjM5OSAzOVoiIGZpbGw9IiMyNjAwRkYiLz4KPHBhdGggZD0iTTIzOC40IDE2OS44SDUzLjFDNTAgMTY5LjggNDcuNSAxNjcuMyA0Ny41IDE2NC4yVjgyLjQwMDFDNDcuNSA3OS4zMDAxIDUwIDc2LjggNTMuMSA3Ni44SDIzOC4zQzI0MS40IDc2LjggMjQzLjkgNzkuMzAwMSAyNDMuOSA4Mi40MDAxVjE2NC4yQzI0NCAxNjcuMyAyNDEuNSAxNjkuOCAyMzguNCAxNjkuOFoiIGZpbGw9IiMyNjAwRkYiLz4KPHBhdGggZD0iTTc1Ljk5ODQgOTIuNDAwMUM3Mi42OTg0IDkyLjQwMDEgNjkuODk4NCA5NS4xMDAxIDY5Ljg5ODQgOTguNTAwMVYxNDguMUM2OS44OTg0IDE1MS40IDcyLjU5ODQgMTU0LjIgNzUuOTk4NCAxNTQuMkM3OS4yOTg0IDE1NC4yIDgyLjA5ODQgMTUxLjUgODIuMDk4NCAxNDguMVY5OC41MDAxQzgxLjk5ODQgOTUuMTAwMSA3OS4yOTg0IDkyLjQwMDEgNzUuOTk4NCA5Mi40MDAxWiIgZmlsbD0id2hpdGUiLz4KPHBhdGggZD0iTTExOS45OTcgOTIuNDAwMUMxMTguNTk3IDkyLjQwMDEgMTE3LjI5NyA5Mi45MDAxIDExNi4xOTcgOTMuOTAwMUwxMDQuOTk3IDEwNEMxMDQuODk3IDEwNCAxMDQuODk3IDEwNC4xIDEwNC44OTcgMTA0LjFMODYuMTk2OSAxMjFDODUuNDk2OSAxMjEuNiA4NC43OTY5IDEyMi4yIDg0Ljc5NjkgMTIzLjJDODQuNzk2OSAxMjQuNCA4NS42OTY5IDEyNS4yIDg2LjM5NjkgMTI1LjhDODYuNTk2OSAxMjYgODYuNzk2OSAxMjYuMSA4Ni44OTY5IDEyNi4zTDEwMC4wOTcgMTM3LjdMMTE2LjA5NyAxNTIuOUMxMTcuMjk3IDE1My45IDExOC42OTcgMTU0LjQgMTIwLjI5NyAxNTQuMkMxMjEuNzk3IDE1NC4xIDEyMy4xOTcgMTUzLjMgMTI0LjE5NyAxNTIuMUMxMjYuMTk3IDE0OS42IDEyNS44OTcgMTQ1LjggMTIzLjQ5NyAxNDMuN0wxMDEuMjk3IDEyMy4xTDExMi4xOTcgMTEzLjNDMTEyLjM5NyAxMTMuMiAxMTIuNDk3IDExMy4xIDExMi41OTcgMTEzTDEyMy43OTcgMTAyLjlDMTI2LjE5NyAxMDAuNyAxMjYuMzk3IDk3LjAwMDEgMTI0LjM5NyA5NC41MDAxQzEyMy4zOTcgOTMuMzAwMSAxMjEuOTk3IDkyLjYwMDEgMTIwLjQ5NyA5Mi41MDAxQzEyMC4yOTcgOTIuNDAwMSAxMjAuMTk3IDkyLjQwMDEgMTE5Ljk5NyA5Mi40MDAxWiIgZmlsbD0id2hpdGUiLz4KPHBhdGggZD0iTTE0OC42IDkyLjQwMDFIMTQ4LjVIMTQ4LjRIMTQyLjlDMTM5LjQgOTIuNDAwMSAxMzYuNSA5NS4yMDAxIDEzNi41IDk4LjgwMDFDMTM2LjUgMTAyLjIgMTM5LjIgMTA1IDE0Mi41IDEwNS4xVjE0OC4xQzE0Mi41IDE1MS40IDE0NS4yIDE1NC4yIDE0OC42IDE1NC4yQzE1MS45IDE1NC4yIDE1NC43IDE1MS41IDE1NC43IDE0OC4xVjk4LjgwMDFWOTguNTAwMUMxNTQuNyA5NS4xMDAxIDE1MiA5Mi40MDAxIDE0OC42IDkyLjQwMDFaIiBmaWxsPSJ3aGl0ZSIvPgo8cGF0aCBkPSJNMjI1LjA5NyAxMjAuNUwyMTAuNzk3IDk1LjYwMDFDMjA5Ljc5NyA5My43MDAxIDIwNy43OTcgOTIuNjAwMSAyMDUuNjk3IDkyLjYwMDFIMTkxLjg5N0gxOTEuNjk3SDE3Ny44OTdDMTc1Ljc5NyA5Mi42MDAxIDE3My43OTcgOTMuNzAwMSAxNzIuNzk3IDk1LjYwMDFMMTU4LjQ5NyAxMjAuNUMxNTcuOTk3IDEyMS4zIDE1Ny43OTcgMTIyLjEgMTU3Ljc5NyAxMjNDMTU3Ljc5NyAxMjMuOSAxNTcuOTk3IDEyNC44IDE1OC40OTcgMTI1LjZMMTcyLjc5NyAxNTAuNUMxNzMuODk3IDE1Mi40IDE3NS43OTcgMTUzLjUgMTc3Ljg5NyAxNTMuNUMxNzcuODk3IDE1My41IDE4NC43OTcgMTUzLjUgMTkxLjY5NyAxNTMuNUMxOTEuNzk3IDE1My41IDE5MS43OTcgMTUzLjUgMTkxLjg5NyAxNTMuNUMxOTguNzk3IDE1My41IDIwNS42OTcgMTUzLjUgMjA1LjY5NyAxNTMuNUMyMDcuNzk3IDE1My41IDIwOS43OTcgMTUyLjQgMjEwLjc5NyAxNTAuNUwyMjUuMDk3IDEyNS42QzIyNS41OTcgMTI0LjggMjI1Ljc5NyAxMjMuOSAyMjUuNzk3IDEyM0MyMjUuNzk3IDEyMi4yIDIyNS41OTcgMTIxLjMgMjI1LjA5NyAxMjAuNVpNMjAyLjE5NyAxNDEuNUgxOTEuODk3SDE5MS42OTdIMTgxLjM5N0wxNzAuODk3IDEyMy4xTDE4MS4zOTcgMTA0LjhIMTkxLjY5N0gxOTEuODk3SDIwMi4xOTdMMjEyLjY5NyAxMjMuMUwyMDIuMTk3IDE0MS41WiIgZmlsbD0id2hpdGUiLz4KPC9zdmc+Cg==;" parent="alUi3gS7hyDzT1EbRRZN-6" vertex="1">
          <mxGeometry x="10" y="51" width="55.96" height="40" as="geometry" />
        </mxCell>
        <mxCell id="alUi3gS7hyDzT1EbRRZN-8" value="database&lt;div&gt;secret&lt;/div&gt;" style="aspect=fixed;sketch=0;html=1;dashed=0;whitespace=wrap;verticalLabelPosition=bottom;verticalAlign=top;fillColor=#2875E2;strokeColor=#ffffff;points=[[0.005,0.63,0],[0.1,0.2,0],[0.9,0.2,0],[0.5,0,0],[0.995,0.63,0],[0.72,0.99,0],[0.5,1,0],[0.28,0.99,0]];shape=mxgraph.kubernetes.icon2;prIcon=secret" parent="alUi3gS7hyDzT1EbRRZN-6" vertex="1">
          <mxGeometry x="170" y="56" width="31.25" height="30" as="geometry" />
        </mxCell>
        <mxCell id="alUi3gS7hyDzT1EbRRZN-9" value="" style="image;aspect=fixed;html=1;points=[];align=center;fontSize=12;image=img/lib/azure2/compute/Kubernetes_Services.svg;" parent="alUi3gS7hyDzT1EbRRZN-6" vertex="1">
          <mxGeometry x="-30" y="-20" width="68" height="60" as="geometry" />
        </mxCell>
        <mxCell id="alUi3gS7hyDzT1EbRRZN-10" value="Kanister pod&lt;div&gt;(ephemeral)&lt;br&gt;&lt;div&gt;&lt;br&gt;&lt;/div&gt;&lt;/div&gt;" style="aspect=fixed;sketch=0;html=1;dashed=0;whitespace=wrap;verticalLabelPosition=bottom;verticalAlign=top;fillColor=#2875E2;strokeColor=#ffffff;points=[[0.005,0.63,0],[0.1,0.2,0],[0.9,0.2,0],[0.5,0,0],[0.995,0.63,0],[0.72,0.99,0],[0.5,1,0],[0.28,0.99,0]];shape=mxgraph.kubernetes.icon2;kubernetesLabel=1;prIcon=pod" parent="alUi3gS7hyDzT1EbRRZN-6" vertex="1">
          <mxGeometry x="22.360000000000014" y="185" width="31.25" height="30" as="geometry" />
        </mxCell>
        <mxCell id="alUi3gS7hyDzT1EbRRZN-11" value="" style="endArrow=classic;html=1;rounded=0;entryX=0.5;entryY=0;entryDx=0;entryDy=0;entryPerimeter=0;exitX=0.5;exitY=1;exitDx=0;exitDy=0;" parent="alUi3gS7hyDzT1EbRRZN-6" source="alUi3gS7hyDzT1EbRRZN-7" target="alUi3gS7hyDzT1EbRRZN-10" edge="1">
          <mxGeometry width="50" height="50" relative="1" as="geometry">
            <mxPoint x="180" y="180" as="sourcePoint" />
            <mxPoint x="230" y="130" as="targetPoint" />
          </mxGeometry>
        </mxCell>
        <mxCell id="alUi3gS7hyDzT1EbRRZN-12" value="#3 exec BP&lt;div&gt;with db secret&lt;/div&gt;" style="edgeLabel;html=1;align=center;verticalAlign=middle;resizable=0;points=[];" parent="alUi3gS7hyDzT1EbRRZN-11" vertex="1" connectable="0">
          <mxGeometry x="-0.1035" y="-1" relative="1" as="geometry">
            <mxPoint as="offset" />
          </mxGeometry>
        </mxCell>
        <mxCell id="P8yPD065z_e6H3VmSR3B-4" value="" style="rounded=0;whiteSpace=wrap;html=1;fillColor=#d80073;strokeColor=#A50040;opacity=60;fontColor=#ffffff;" parent="alUi3gS7hyDzT1EbRRZN-2" vertex="1">
          <mxGeometry x="-10" width="670" height="410" as="geometry" />
        </mxCell>
        <mxCell id="alUi3gS7hyDzT1EbRRZN-13" value="" style="endArrow=classic;html=1;rounded=0;exitX=1;exitY=0.5;exitDx=0;exitDy=0;" parent="alUi3gS7hyDzT1EbRRZN-1" edge="1">
          <mxGeometry width="50" height="50" relative="1" as="geometry">
            <mxPoint x="236.96000000000004" y="274.9999999999999" as="sourcePoint" />
            <mxPoint x="331" y="274" as="targetPoint" />
          </mxGeometry>
        </mxCell>
        <mxCell id="alUi3gS7hyDzT1EbRRZN-14" value="#1 backup" style="edgeLabel;html=1;align=center;verticalAlign=middle;resizable=0;points=[];" parent="alUi3gS7hyDzT1EbRRZN-13" vertex="1" connectable="0">
          <mxGeometry x="-0.3236" relative="1" as="geometry">
            <mxPoint as="offset" />
          </mxGeometry>
        </mxCell>
        <mxCell id="alUi3gS7hyDzT1EbRRZN-15" value="" style="endArrow=classic;html=1;rounded=0;" parent="alUi3gS7hyDzT1EbRRZN-1" edge="1">
          <mxGeometry width="50" height="50" relative="1" as="geometry">
            <mxPoint x="330" y="291" as="sourcePoint" />
            <mxPoint x="236" y="291" as="targetPoint" />
          </mxGeometry>
        </mxCell>
        <mxCell id="alUi3gS7hyDzT1EbRRZN-16" value="#2 blueprint" style="edgeLabel;html=1;align=center;verticalAlign=middle;resizable=0;points=[];" parent="alUi3gS7hyDzT1EbRRZN-15" vertex="1" connectable="0">
          <mxGeometry x="-0.0816" y="-1" relative="1" as="geometry">
            <mxPoint as="offset" />
          </mxGeometry>
        </mxCell>
        <mxCell id="alUi3gS7hyDzT1EbRRZN-17" value="" style="endArrow=classic;html=1;rounded=0;" parent="alUi3gS7hyDzT1EbRRZN-1" edge="1">
          <mxGeometry width="50" height="50" relative="1" as="geometry">
            <mxPoint x="640" y="421" as="sourcePoint" />
            <mxPoint x="230" y="421" as="targetPoint" />
          </mxGeometry>
        </mxCell>
        <mxCell id="alUi3gS7hyDzT1EbRRZN-18" value="# 5 dump" style="edgeLabel;html=1;align=center;verticalAlign=middle;resizable=0;points=[];" parent="alUi3gS7hyDzT1EbRRZN-17" vertex="1" connectable="0">
          <mxGeometry x="-0.0767" y="1" relative="1" as="geometry">
            <mxPoint as="offset" />
          </mxGeometry>
        </mxCell>
        <mxCell id="alUi3gS7hyDzT1EbRRZN-19" value="" style="endArrow=classic;html=1;rounded=0;entryX=-0.053;entryY=0.528;entryDx=0;entryDy=0;entryPerimeter=0;" parent="alUi3gS7hyDzT1EbRRZN-1" target="alUi3gS7hyDzT1EbRRZN-22" edge="1">
          <mxGeometry width="50" height="50" relative="1" as="geometry">
            <mxPoint x="240" y="440" as="sourcePoint" />
            <mxPoint x="450" y="370" as="targetPoint" />
          </mxGeometry>
        </mxCell>
        <mxCell id="alUi3gS7hyDzT1EbRRZN-20" value="# 6 Push dump&amp;nbsp;&lt;div&gt;Encrypted/Compressed&lt;/div&gt;&lt;div&gt;Immutable&lt;/div&gt;" style="edgeLabel;html=1;align=center;verticalAlign=middle;resizable=0;points=[];" parent="alUi3gS7hyDzT1EbRRZN-19" vertex="1" connectable="0">
          <mxGeometry x="-0.2959" relative="1" as="geometry">
            <mxPoint x="37" y="14" as="offset" />
          </mxGeometry>
        </mxCell>
        <mxCell id="alUi3gS7hyDzT1EbRRZN-21" value="Tenant 1" style="swimlane;whiteSpace=wrap;html=1;" parent="alUi3gS7hyDzT1EbRRZN-1" vertex="1">
          <mxGeometry x="80" y="120" width="720" height="560" as="geometry" />
        </mxCell>
        <mxCell id="alUi3gS7hyDzT1EbRRZN-22" value="Storage account&lt;div&gt;container&amp;nbsp;&amp;nbsp;&lt;div&gt;with version-level immutability&amp;nbsp;&lt;/div&gt;&lt;/div&gt;" style="image;aspect=fixed;html=1;points=[];align=center;fontSize=12;image=img/lib/azure2/storage/Storage_Accounts.svg;" parent="alUi3gS7hyDzT1EbRRZN-21" vertex="1">
          <mxGeometry x="570" y="450" width="65" height="52" as="geometry" />
        </mxCell>
        <mxCell id="uGH6oW2wV56cqDaFSFgl-0" value="vnet&amp;nbsp;" style="swimlane;whiteSpace=wrap;html=1;" parent="alUi3gS7hyDzT1EbRRZN-1" vertex="1">
          <mxGeometry x="120" y="729" width="640" height="400" as="geometry" />
        </mxCell>
        <mxCell id="uGH6oW2wV56cqDaFSFgl-1" value="Postgres flexible server&amp;nbsp;&lt;div&gt;Multiple databases&lt;/div&gt;" style="image;aspect=fixed;html=1;points=[];align=center;fontSize=12;image=img/lib/azure2/databases/SQL_Server.svg;" parent="uGH6oW2wV56cqDaFSFgl-0" vertex="1">
          <mxGeometry x="530" y="219" width="68" height="68" as="geometry" />
        </mxCell>
        <mxCell id="uGH6oW2wV56cqDaFSFgl-2" value="" style="endArrow=classic;html=1;rounded=0;" parent="uGH6oW2wV56cqDaFSFgl-0" edge="1">
          <mxGeometry width="50" height="50" relative="1" as="geometry">
            <mxPoint x="110" y="271" as="sourcePoint" />
            <mxPoint x="520" y="121" as="targetPoint" />
          </mxGeometry>
        </mxCell>
        <mxCell id="uGH6oW2wV56cqDaFSFgl-3" value="#6 restore&lt;div&gt;database&lt;/div&gt;" style="edgeLabel;html=1;align=center;verticalAlign=middle;resizable=0;points=[];" parent="uGH6oW2wV56cqDaFSFgl-2" vertex="1" connectable="0">
          <mxGeometry x="0.0803" relative="1" as="geometry">
            <mxPoint as="offset" />
          </mxGeometry>
        </mxCell>
        <mxCell id="uGH6oW2wV56cqDaFSFgl-4" value="AKS" style="swimlane;whiteSpace=wrap;html=1;" parent="uGH6oW2wV56cqDaFSFgl-0" vertex="1">
          <mxGeometry x="50" y="60" width="240" height="260" as="geometry" />
        </mxCell>
        <mxCell id="uGH6oW2wV56cqDaFSFgl-5" value="" style="shape=image;aspect=fixed;image=data:image/svg+xml,PHN2ZyB3aWR0aD0iMjkxIiBoZWlnaHQ9IjIwOCIgdmlld0JveD0iMCAwIDI5MSAyMDgiIGZpbGw9Im5vbmUiIHhtbG5zPSJodHRwOi8vd3d3LnczLm9yZy8yMDAwL3N2ZyI+CjxyZWN0IHdpZHRoPSIyOTEiIGhlaWdodD0iMjA4IiBmaWxsPSJ3aGl0ZSIvPgo8cGF0aCBkPSJNMTA1Ljg5OSA0Mi42QzEwNC44OTkgNDAuMyAxMDIuNzk5IDM5IDk5Ljk5OTIgMzlDOTcuOTk5MiAzOSA5NS4xOTkyIDQwLjEgOTMuNzk5MiA0My40TDgzLjQ5OTIgNjQuOUM4Mi4zOTkyIDY2LjggODIuNzk5MiA2OC4xIDgzLjI5OTIgNjguOUM4My45OTkyIDcwIDg1LjM5OTIgNzAuNSA4Ni4wOTkyIDcwLjVIODYuMTk5MkM4Ny40OTkyIDcwLjUgODguNjk5MiA2OS43IDg5LjI5OTIgNjguNEM4OS40OTkyIDY3LjkgOTAuMjk5MiA2Ni4yIDkwLjk5OTIgNjQuOEM5MS40OTkyIDYzLjggOTEuNzk5MiA2My4yIDkxLjg5OTIgNjIuOUg5OS45OTkyQzEwMS43OTkgNjIuOSAxMDMuMTk5IDYxLjQgMTAzLjE5OSA1OS41QzEwMy4xOTkgNTcuNiAxMDEuNzk5IDU2LjEgOTkuOTk5MiA1Ni4xSDk1LjA5OTJMOTkuNTk5MiA0Ni44VjQ2LjdDOTkuNzk5MiA0Ni4zIDk5Ljg5OTIgNDYuMyA5OS43OTkyIDQ2LjNDOTkuODk5MiA0Ni4zIDk5Ljk5OTIgNDYuMyA5OS45OTkyIDQ2LjNDMTAwLjA5OSA0Ni4zIDEwMC4xOTkgNDYuNyAxMDAuMjk5IDQ2LjhMMTEwLjU5OSA2OC40QzExMC44OTkgNjkgMTExLjY5OSA3MCAxMTIuODk5IDcwLjRDMTEzLjc5OSA3MC42IDExNC43OTkgNzAuNSAxMTUuNjk5IDY5LjhDMTE3LjE5OSA2OC45IDExNy40OTkgNjYuOSAxMTYuNTk5IDY1LjJMMTA1Ljg5OSA0Mi42WiIgZmlsbD0iIzI2MDBGRiIvPgo8cGF0aCBkPSJNMTM4LjIwMSA1MS4zOTk5SDEyOS41MDFDMTI3LjQwMSA1MS4zOTk5IDEyNi4wMDEgNTAuMjk5OSAxMjYuMDAxIDQ4LjM5OTlDMTI2LjAwMSA0Ni40OTk5IDEyNy4zMDEgNDUuMzk5OSAxMjkuNTAxIDQ1LjM5OTlIMTQzLjYwMUMxNDUuNjAxIDQ1LjM5OTkgMTQ2LjYwMSA0My42OTk5IDE0Ni42MDEgNDIuMDk5OUMxNDYuNjAxIDQwLjI5OTkgMTQ1LjMwMSAzOC44OTk5IDE0My42MDEgMzguODk5OUgxMjkuNDAxQzEyMy45MDEgMzguODk5OSAxMTkuODAxIDQyLjk5OTkgMTE5LjgwMSA0OC4yOTk5QzExOS44MDEgNTMuNjk5OSAxMjMuOTAxIDU3LjY5OTkgMTI5LjQwMSA1Ny42OTk5SDEzOC4wMDFDMTQwLjEwMSA1Ny42OTk5IDE0MS41MDEgNTguOTk5OSAxNDEuNTAxIDYwLjg5OTlDMTQxLjUwMSA2Mi43OTk5IDE0MC4yMDEgNjMuODk5OSAxMzguMDAxIDYzLjg5OTlIMTI0LjAwMUMxMjIuMzAxIDYzLjg5OTkgMTIxLjAwMSA2NS4yOTk5IDEyMS4wMDEgNjcuMDk5OUMxMjEuMDAxIDY3Ljk5OTkgMTIxLjMwMSA2OC44OTk5IDEyMS45MDEgNjkuNDk5OUMxMjIuNTAxIDcwLjA5OTkgMTIzLjIwMSA3MC4zOTk5IDEyNC4wMDEgNzAuMzk5OUgxMzguMTAxQzE0My42MDEgNzAuMzk5OSAxNDcuNjAxIDY2LjM5OTkgMTQ3LjYwMSA2MC45OTk5QzE0Ny42MDEgNTUuNjk5OSAxNDMuNTAxIDUxLjM5OTkgMTM4LjIwMSA1MS4zOTk5WiIgZmlsbD0iIzI2MDBGRiIvPgo8cGF0aCBkPSJNMTc2LjQwMiAzOUgxNTMuNTAyQzE1MS42MDIgMzkgMTUwLjEwMiA0MC40IDE1MC4xMDIgNDIuMkMxNTAuMTAyIDQzLjkgMTUxLjYwMiA0NS40IDE1My41MDIgNDUuNEgxNjEuNjAyVjY3LjNDMTYxLjYwMiA2OS4yIDE2My4xMDIgNzAuNyAxNjUuMDAyIDcwLjdDMTY2LjkwMiA3MC43IDE2OC40MDIgNjkuMiAxNjguNDAyIDY3LjNWNDUuM0gxNzYuNTAyQzE3OC40MDIgNDUuMyAxNzkuOTAyIDQzLjkgMTc5LjkwMiA0Mi4xQzE3OS44MDIgNDAuNCAxNzguMzAyIDM5IDE3Ni40MDIgMzlaIiBmaWxsPSIjMjYwMEZGIi8+CjxwYXRoIGQ9Ik0xODYuODAyIDQ1LjRIMjA3LjIwMkMyMDkuMTAyIDQ1LjQgMjEwLjYwMiA0NCAyMTAuNjAyIDQyLjJDMjEwLjYwMiA0MC40IDIwOS4xMDIgMzkgMjA3LjIwMiAzOUgxODYuODAyQzE4NC45MDIgMzkgMTgzLjQwMiA0MC40IDE4My40MDIgNDIuMkMxODMuNDAyIDQ0IDE4NC45MDIgNDUuNCAxODYuODAyIDQ1LjRaIiBmaWxsPSIjMjYwMEZGIi8+CjxwYXRoIGQ9Ik0xOTEuNSA1Ny42OTk4SDIwNy4zQzIwOS4yIDU3LjY5OTggMjEwLjcgNTYuMjk5OCAyMTAuNyA1NC40OTk4QzIxMC43IDUyLjc5OTggMjA5LjIgNTEuMjk5OCAyMDcuMyA1MS4yOTk4SDE5MC43QzE5MC41IDUxLjI5OTggMTg4LjYgNTEuMjk5OCAxODcuOCA1MS41OTk4QzE4Ny4zIDUxLjc5OTggMTg2LjggNTEuOTk5OCAxODYuMyA1Mi4yOTk4QzE4NC42IDUzLjM5OTggMTgzLjYgNTUuMjk5OCAxODMuNSA1Ny4zOTk4VjYyLjU5OThWNjQuODk5OEMxODMuNyA2Ni43OTk4IDE4NC43IDY4LjQ5OTggMTg2LjIgNjkuNDk5OEMxODYuNiA2OS43OTk4IDE4Ny4xIDY5Ljk5OTggMTg3LjcgNzAuMTk5OEMxODguNSA3MC40OTk4IDE5MC41IDcwLjQ5OTggMTkwLjYgNzAuNDk5OEgyMDcuM0MyMDkuMiA3MC40OTk4IDIxMC43IDY5LjA5OTggMjEwLjcgNjcuMjk5OEMyMTAuNyA2NS40OTk4IDIwOS4yIDY0LjA5OTggMjA3LjMgNjQuMDk5OEgxOTEuNUMxOTAuOCA2NC4wOTk4IDE4OS45IDYzLjY5OTggMTg5LjkgNjIuNzk5OFY1OC43OTk4QzE4OS44IDU3Ljk5OTggMTkwLjMgNTcuNjk5OCAxOTEuNSA1Ny42OTk4WiIgZmlsbD0iIzI2MDBGRiIvPgo8cGF0aCBkPSJNNTEuMjAwOCAzOUM0OS4zMDA4IDM5IDQ3LjgwMDggNDAuNSA0Ny44MDA4IDQyLjRWNjcuMUM0Ny44MDA4IDY5IDQ5LjMwMDggNzAuNSA1MS4yMDA4IDcwLjVDNTMuMTAwOCA3MC41IDU0LjYwMDggNjkgNTQuNjAwOCA2Ny4xVjQyLjRDNTQuNjAwOCA0MC41IDUzLjEwMDggMzkgNTEuMjAwOCAzOVoiIGZpbGw9IiMyNjAwRkYiLz4KPHBhdGggZD0iTTc3LjkwMDggNjQuNTk5OUw2Ni41MDA4IDU0Ljc5OTlMNzcuODAwOCA0NS4wOTk5Qzc5LjEwMDggNDMuOTk5OSA3OS40MDA4IDQyLjE5OTkgNzguNjAwOCA0MC43OTk5Qzc4LjEwMDggMzkuODk5OSA3Ny4yMDA4IDM5LjI5OTkgNzYuMjAwOCAzOS4wOTk5Qzc1LjIwMDggMzguODk5OSA3NC4yMDA4IDM5LjE5OTkgNzMuNDAwOCAzOS44OTk5TDU3LjMwMDggNTMuNjk5OUM1Ny4wMDA4IDUzLjk5OTkgNTYuODAwOCA1NC4zOTk5IDU2LjgwMDggNTQuNzk5OUM1Ni44MDA4IDU1LjE5OTkgNTcuMDAwOCA1NS41OTk5IDU3LjMwMDggNTUuODk5OUw3My4zMDA4IDY5LjY5OTlDNzQuMDAwOCA3MC4yOTk5IDc0LjgwMDggNzAuNTk5OSA3NS42MDA4IDcwLjU5OTlDNzYuMzAwOCA3MC41OTk5IDc3LjAwMDggNzAuMzk5OSA3Ny42MDA4IDY5Ljg5OTlDNzguNDAwOCA2OS4yOTk5IDc4LjkwMDggNjguMjk5OSA3OC45MDA4IDY3LjI5OTlDNzkuMTAwOCA2Ni4xOTk5IDc4LjYwMDggNjUuMTk5OSA3Ny45MDA4IDY0LjU5OTlaIiBmaWxsPSIjMjYwMEZGIi8+CjxwYXRoIGQ9Ik0yNDAuMzk5IDM5QzIzOC4yOTkgMzkgMjM2Ljk5OSA0MC44IDIzNi45OTkgNDIuMlY2MS4zQzIzMy45OTkgNTYuNSAyMjUuMTk5IDQyLjQgMjI0Ljk5OSA0Mi4yQzIyNC4xOTkgNDEgMjIyLjI5OSAzOSAyMTkuNzk5IDM5QzIxNi42OTkgMzkgMjE0LjE5OSA0MS43IDIxNC4xOTkgNDUuMVY2Ny4yQzIxNC4xOTkgNjkuMSAyMTUuNTk5IDcwLjYgMjE3LjM5OSA3MC42QzIxOS4xOTkgNzAuNiAyMjAuNTk5IDY5LjEgMjIwLjU5OSA2Ny4yVjQ3LjRMMjMyLjc5OSA2Ni43QzIzNC4wOTkgNjguNSAyMzUuNjk5IDcwLjYgMjM4LjI5OSA3MC42QzI0MS41OTkgNzAuNiAyNDMuODk5IDY4LjIgMjQzLjg5OSA2NC41VjQyLjRDMjQzLjc5OSA0MC41IDI0Mi4yOTkgMzkgMjQwLjM5OSAzOVoiIGZpbGw9IiMyNjAwRkYiLz4KPHBhdGggZD0iTTIzOC40IDE2OS44SDUzLjFDNTAgMTY5LjggNDcuNSAxNjcuMyA0Ny41IDE2NC4yVjgyLjQwMDFDNDcuNSA3OS4zMDAxIDUwIDc2LjggNTMuMSA3Ni44SDIzOC4zQzI0MS40IDc2LjggMjQzLjkgNzkuMzAwMSAyNDMuOSA4Mi40MDAxVjE2NC4yQzI0NCAxNjcuMyAyNDEuNSAxNjkuOCAyMzguNCAxNjkuOFoiIGZpbGw9IiMyNjAwRkYiLz4KPHBhdGggZD0iTTc1Ljk5ODQgOTIuNDAwMUM3Mi42OTg0IDkyLjQwMDEgNjkuODk4NCA5NS4xMDAxIDY5Ljg5ODQgOTguNTAwMVYxNDguMUM2OS44OTg0IDE1MS40IDcyLjU5ODQgMTU0LjIgNzUuOTk4NCAxNTQuMkM3OS4yOTg0IDE1NC4yIDgyLjA5ODQgMTUxLjUgODIuMDk4NCAxNDguMVY5OC41MDAxQzgxLjk5ODQgOTUuMTAwMSA3OS4yOTg0IDkyLjQwMDEgNzUuOTk4NCA5Mi40MDAxWiIgZmlsbD0id2hpdGUiLz4KPHBhdGggZD0iTTExOS45OTcgOTIuNDAwMUMxMTguNTk3IDkyLjQwMDEgMTE3LjI5NyA5Mi45MDAxIDExNi4xOTcgOTMuOTAwMUwxMDQuOTk3IDEwNEMxMDQuODk3IDEwNCAxMDQuODk3IDEwNC4xIDEwNC44OTcgMTA0LjFMODYuMTk2OSAxMjFDODUuNDk2OSAxMjEuNiA4NC43OTY5IDEyMi4yIDg0Ljc5NjkgMTIzLjJDODQuNzk2OSAxMjQuNCA4NS42OTY5IDEyNS4yIDg2LjM5NjkgMTI1LjhDODYuNTk2OSAxMjYgODYuNzk2OSAxMjYuMSA4Ni44OTY5IDEyNi4zTDEwMC4wOTcgMTM3LjdMMTE2LjA5NyAxNTIuOUMxMTcuMjk3IDE1My45IDExOC42OTcgMTU0LjQgMTIwLjI5NyAxNTQuMkMxMjEuNzk3IDE1NC4xIDEyMy4xOTcgMTUzLjMgMTI0LjE5NyAxNTIuMUMxMjYuMTk3IDE0OS42IDEyNS44OTcgMTQ1LjggMTIzLjQ5NyAxNDMuN0wxMDEuMjk3IDEyMy4xTDExMi4xOTcgMTEzLjNDMTEyLjM5NyAxMTMuMiAxMTIuNDk3IDExMy4xIDExMi41OTcgMTEzTDEyMy43OTcgMTAyLjlDMTI2LjE5NyAxMDAuNyAxMjYuMzk3IDk3LjAwMDEgMTI0LjM5NyA5NC41MDAxQzEyMy4zOTcgOTMuMzAwMSAxMjEuOTk3IDkyLjYwMDEgMTIwLjQ5NyA5Mi41MDAxQzEyMC4yOTcgOTIuNDAwMSAxMjAuMTk3IDkyLjQwMDEgMTE5Ljk5NyA5Mi40MDAxWiIgZmlsbD0id2hpdGUiLz4KPHBhdGggZD0iTTE0OC42IDkyLjQwMDFIMTQ4LjVIMTQ4LjRIMTQyLjlDMTM5LjQgOTIuNDAwMSAxMzYuNSA5NS4yMDAxIDEzNi41IDk4LjgwMDFDMTM2LjUgMTAyLjIgMTM5LjIgMTA1IDE0Mi41IDEwNS4xVjE0OC4xQzE0Mi41IDE1MS40IDE0NS4yIDE1NC4yIDE0OC42IDE1NC4yQzE1MS45IDE1NC4yIDE1NC43IDE1MS41IDE1NC43IDE0OC4xVjk4LjgwMDFWOTguNTAwMUMxNTQuNyA5NS4xMDAxIDE1MiA5Mi40MDAxIDE0OC42IDkyLjQwMDFaIiBmaWxsPSJ3aGl0ZSIvPgo8cGF0aCBkPSJNMjI1LjA5NyAxMjAuNUwyMTAuNzk3IDk1LjYwMDFDMjA5Ljc5NyA5My43MDAxIDIwNy43OTcgOTIuNjAwMSAyMDUuNjk3IDkyLjYwMDFIMTkxLjg5N0gxOTEuNjk3SDE3Ny44OTdDMTc1Ljc5NyA5Mi42MDAxIDE3My43OTcgOTMuNzAwMSAxNzIuNzk3IDk1LjYwMDFMMTU4LjQ5NyAxMjAuNUMxNTcuOTk3IDEyMS4zIDE1Ny43OTcgMTIyLjEgMTU3Ljc5NyAxMjNDMTU3Ljc5NyAxMjMuOSAxNTcuOTk3IDEyNC44IDE1OC40OTcgMTI1LjZMMTcyLjc5NyAxNTAuNUMxNzMuODk3IDE1Mi40IDE3NS43OTcgMTUzLjUgMTc3Ljg5NyAxNTMuNUMxNzcuODk3IDE1My41IDE4NC43OTcgMTUzLjUgMTkxLjY5NyAxNTMuNUMxOTEuNzk3IDE1My41IDE5MS43OTcgMTUzLjUgMTkxLjg5NyAxNTMuNUMxOTguNzk3IDE1My41IDIwNS42OTcgMTUzLjUgMjA1LjY5NyAxNTMuNUMyMDcuNzk3IDE1My41IDIwOS43OTcgMTUyLjQgMjEwLjc5NyAxNTAuNUwyMjUuMDk3IDEyNS42QzIyNS41OTcgMTI0LjggMjI1Ljc5NyAxMjMuOSAyMjUuNzk3IDEyM0MyMjUuNzk3IDEyMi4yIDIyNS41OTcgMTIxLjMgMjI1LjA5NyAxMjAuNVpNMjAyLjE5NyAxNDEuNUgxOTEuODk3SDE5MS42OTdIMTgxLjM5N0wxNzAuODk3IDEyMy4xTDE4MS4zOTcgMTA0LjhIMTkxLjY5N0gxOTEuODk3SDIwMi4xOTdMMjEyLjY5NyAxMjMuMUwyMDIuMTk3IDE0MS41WiIgZmlsbD0id2hpdGUiLz4KPC9zdmc+Cg==;" parent="uGH6oW2wV56cqDaFSFgl-4" vertex="1">
          <mxGeometry x="10" y="51" width="55.96" height="40" as="geometry" />
        </mxCell>
        <mxCell id="uGH6oW2wV56cqDaFSFgl-6" value="database&lt;div&gt;secret&lt;/div&gt;" style="aspect=fixed;sketch=0;html=1;dashed=0;whitespace=wrap;verticalLabelPosition=bottom;verticalAlign=top;fillColor=#2875E2;strokeColor=#ffffff;points=[[0.005,0.63,0],[0.1,0.2,0],[0.9,0.2,0],[0.5,0,0],[0.995,0.63,0],[0.72,0.99,0],[0.5,1,0],[0.28,0.99,0]];shape=mxgraph.kubernetes.icon2;prIcon=secret" parent="uGH6oW2wV56cqDaFSFgl-4" vertex="1">
          <mxGeometry x="170" y="56" width="31.25" height="30" as="geometry" />
        </mxCell>
        <mxCell id="uGH6oW2wV56cqDaFSFgl-7" value="" style="image;aspect=fixed;html=1;points=[];align=center;fontSize=12;image=img/lib/azure2/compute/Kubernetes_Services.svg;" parent="uGH6oW2wV56cqDaFSFgl-4" vertex="1">
          <mxGeometry x="-30" y="-20" width="68" height="60" as="geometry" />
        </mxCell>
        <mxCell id="uGH6oW2wV56cqDaFSFgl-8" value="Kanister pod&lt;div&gt;(ephemeral)&lt;br&gt;&lt;div&gt;&lt;br&gt;&lt;/div&gt;&lt;/div&gt;" style="aspect=fixed;sketch=0;html=1;dashed=0;whitespace=wrap;verticalLabelPosition=bottom;verticalAlign=top;fillColor=#2875E2;strokeColor=#ffffff;points=[[0.005,0.63,0],[0.1,0.2,0],[0.9,0.2,0],[0.5,0,0],[0.995,0.63,0],[0.72,0.99,0],[0.5,1,0],[0.28,0.99,0]];shape=mxgraph.kubernetes.icon2;kubernetesLabel=1;prIcon=pod" parent="uGH6oW2wV56cqDaFSFgl-4" vertex="1">
          <mxGeometry x="22.360000000000014" y="185" width="31.25" height="30" as="geometry" />
        </mxCell>
        <mxCell id="uGH6oW2wV56cqDaFSFgl-9" value="" style="endArrow=classic;html=1;rounded=0;entryX=0.5;entryY=0;entryDx=0;entryDy=0;entryPerimeter=0;exitX=0.5;exitY=1;exitDx=0;exitDy=0;" parent="uGH6oW2wV56cqDaFSFgl-4" source="uGH6oW2wV56cqDaFSFgl-5" target="uGH6oW2wV56cqDaFSFgl-8" edge="1">
          <mxGeometry width="50" height="50" relative="1" as="geometry">
            <mxPoint x="180" y="180" as="sourcePoint" />
            <mxPoint x="230" y="130" as="targetPoint" />
          </mxGeometry>
        </mxCell>
        <mxCell id="uGH6oW2wV56cqDaFSFgl-10" value="#3 exec BP&lt;div&gt;with db secret&lt;/div&gt;" style="edgeLabel;html=1;align=center;verticalAlign=middle;resizable=0;points=[];" parent="uGH6oW2wV56cqDaFSFgl-9" vertex="1" connectable="0">
          <mxGeometry x="-0.1035" y="-1" relative="1" as="geometry">
            <mxPoint as="offset" />
          </mxGeometry>
        </mxCell>
        <mxCell id="uGH6oW2wV56cqDaFSFgl-11" value="" style="endArrow=classic;html=1;rounded=0;exitX=1;exitY=0.5;exitDx=0;exitDy=0;" parent="alUi3gS7hyDzT1EbRRZN-1" edge="1">
          <mxGeometry width="50" height="50" relative="1" as="geometry">
            <mxPoint x="236.96000000000004" y="853.9999999999999" as="sourcePoint" />
            <mxPoint x="331" y="853" as="targetPoint" />
          </mxGeometry>
        </mxCell>
        <mxCell id="uGH6oW2wV56cqDaFSFgl-12" value="#1 restore" style="edgeLabel;html=1;align=center;verticalAlign=middle;resizable=0;points=[];" parent="uGH6oW2wV56cqDaFSFgl-11" vertex="1" connectable="0">
          <mxGeometry x="-0.3236" relative="1" as="geometry">
            <mxPoint as="offset" />
          </mxGeometry>
        </mxCell>
        <mxCell id="uGH6oW2wV56cqDaFSFgl-13" value="" style="endArrow=classic;html=1;rounded=0;" parent="alUi3gS7hyDzT1EbRRZN-1" edge="1">
          <mxGeometry width="50" height="50" relative="1" as="geometry">
            <mxPoint x="330" y="870" as="sourcePoint" />
            <mxPoint x="236" y="870" as="targetPoint" />
          </mxGeometry>
        </mxCell>
        <mxCell id="uGH6oW2wV56cqDaFSFgl-14" value="#2 blueprint" style="edgeLabel;html=1;align=center;verticalAlign=middle;resizable=0;points=[];" parent="uGH6oW2wV56cqDaFSFgl-13" vertex="1" connectable="0">
          <mxGeometry x="-0.0816" y="-1" relative="1" as="geometry">
            <mxPoint as="offset" />
          </mxGeometry>
        </mxCell>
        <mxCell id="uGH6oW2wV56cqDaFSFgl-15" value="" style="endArrow=classic;html=1;rounded=0;" parent="alUi3gS7hyDzT1EbRRZN-1" edge="1">
          <mxGeometry width="50" height="50" relative="1" as="geometry">
            <mxPoint x="240" y="990" as="sourcePoint" />
            <mxPoint x="630" y="620" as="targetPoint" />
          </mxGeometry>
        </mxCell>
        <mxCell id="uGH6oW2wV56cqDaFSFgl-16" value="# 4 Pull dump&amp;nbsp;" style="edgeLabel;html=1;align=center;verticalAlign=middle;resizable=0;points=[];" parent="uGH6oW2wV56cqDaFSFgl-15" vertex="1" connectable="0">
          <mxGeometry x="-0.2959" relative="1" as="geometry">
            <mxPoint x="113" y="-82" as="offset" />
          </mxGeometry>
        </mxCell>
        <mxCell id="P8yPD065z_e6H3VmSR3B-0" value="Postgres flexible server&amp;nbsp;&lt;div&gt;Multiple databases&lt;/div&gt;" style="image;aspect=fixed;html=1;points=[];align=center;fontSize=12;image=img/lib/azure2/databases/SQL_Server.svg;" parent="alUi3gS7hyDzT1EbRRZN-1" vertex="1">
          <mxGeometry x="648.5" y="230" width="68" height="68" as="geometry" />
        </mxCell>
        <mxCell id="uGH6oW2wV56cqDaFSFgl-17" value="Tenant 2" style="swimlane;whiteSpace=wrap;html=1;" parent="alUi3gS7hyDzT1EbRRZN-1" vertex="1">
          <mxGeometry x="80" y="699" width="720" height="481" as="geometry" />
        </mxCell>
        <mxCell id="P8yPD065z_e6H3VmSR3B-2" value="Postgres flexible server&amp;nbsp;&lt;div&gt;Multiple databases&lt;/div&gt;" style="image;aspect=fixed;html=1;points=[];align=center;fontSize=12;image=img/lib/azure2/databases/SQL_Server.svg;" parent="uGH6oW2wV56cqDaFSFgl-17" vertex="1">
          <mxGeometry x="567" y="112" width="68" height="68" as="geometry" />
        </mxCell>
        <mxCell id="P8yPD065z_e6H3VmSR3B-3" value="" style="endArrow=classic;html=1;rounded=0;entryX=0.386;entryY=-0.028;entryDx=0;entryDy=0;entryPerimeter=0;" parent="uGH6oW2wV56cqDaFSFgl-17" edge="1">
          <mxGeometry width="50" height="50" relative="1" as="geometry">
            <mxPoint x="594.5" y="222" as="sourcePoint" />
            <mxPoint x="594.5" y="249" as="targetPoint" />
          </mxGeometry>
        </mxCell>
        <mxCell id="uGH6oW2wV56cqDaFSFgl-19" value="" style="endArrow=classic;html=1;rounded=0;" parent="alUi3gS7hyDzT1EbRRZN-1" edge="1">
          <mxGeometry width="50" height="50" relative="1" as="geometry">
            <mxPoint x="620" y="610" as="sourcePoint" />
            <mxPoint x="230" y="980" as="targetPoint" />
          </mxGeometry>
        </mxCell>
        <mxCell id="uGH6oW2wV56cqDaFSFgl-20" value="# 5 dump" style="edgeLabel;html=1;align=center;verticalAlign=middle;resizable=0;points=[];" parent="uGH6oW2wV56cqDaFSFgl-19" vertex="1" connectable="0">
          <mxGeometry x="0.2347" y="1" relative="1" as="geometry">
            <mxPoint x="68" y="-77" as="offset" />
          </mxGeometry>
        </mxCell>
        <mxCell id="P8yPD065z_e6H3VmSR3B-1" value="" style="endArrow=classic;html=1;rounded=0;entryX=0.386;entryY=-0.028;entryDx=0;entryDy=0;entryPerimeter=0;" parent="alUi3gS7hyDzT1EbRRZN-1" edge="1">
          <mxGeometry width="50" height="50" relative="1" as="geometry">
            <mxPoint x="676" y="340" as="sourcePoint" />
            <mxPoint x="676" y="367" as="targetPoint" />
          </mxGeometry>
        </mxCell>
      </root>
    </mxGraphModel>
  </diagram>
  <diagram name="workload" id="9tVH3hL1x-cjzLA9YLyY">
    <mxGraphModel dx="1191" dy="791" grid="1" gridSize="10" guides="1" tooltips="1" connect="1" arrows="1" fold="1" page="1" pageScale="1" pageWidth="827" pageHeight="1169" math="0" shadow="0">
      <root>
        <mxCell id="irybFNcAlIdu3kBuoc-8-0" />
        <mxCell id="irybFNcAlIdu3kBuoc-8-1" parent="irybFNcAlIdu3kBuoc-8-0" />
        <mxCell id="irybFNcAlIdu3kBuoc-8-2" value="vnet&amp;nbsp;" style="swimlane;whiteSpace=wrap;html=1;" vertex="1" parent="irybFNcAlIdu3kBuoc-8-1">
          <mxGeometry x="120" y="150" width="640" height="400" as="geometry" />
        </mxCell>
        <mxCell id="irybFNcAlIdu3kBuoc-8-21" value="Tenant 1" style="swimlane;whiteSpace=wrap;html=1;" vertex="1" parent="irybFNcAlIdu3kBuoc-8-1">
          <mxGeometry x="80" y="120" width="700" height="450" as="geometry" />
        </mxCell>
        <mxCell id="TYDsMMmlR3ZMGHGctqIx-0" value="Server" style="swimlane;whiteSpace=wrap;html=1;" vertex="1" parent="irybFNcAlIdu3kBuoc-8-21">
          <mxGeometry x="390" y="90" width="230" height="320" as="geometry" />
        </mxCell>
        <mxCell id="TYDsMMmlR3ZMGHGctqIx-3" value="app1db" style="rounded=1;whiteSpace=wrap;html=1;" vertex="1" parent="TYDsMMmlR3ZMGHGctqIx-0">
          <mxGeometry x="48" y="80" width="120" height="60" as="geometry" />
        </mxCell>
        <mxCell id="TYDsMMmlR3ZMGHGctqIx-4" value="app2db" style="rounded=1;whiteSpace=wrap;html=1;" vertex="1" parent="TYDsMMmlR3ZMGHGctqIx-0">
          <mxGeometry x="48" y="150" width="120" height="60" as="geometry" />
        </mxCell>
        <mxCell id="TYDsMMmlR3ZMGHGctqIx-5" value="app3db" style="rounded=1;whiteSpace=wrap;html=1;" vertex="1" parent="TYDsMMmlR3ZMGHGctqIx-0">
          <mxGeometry x="48" y="220" width="120" height="60" as="geometry" />
        </mxCell>
        <mxCell id="irybFNcAlIdu3kBuoc-8-23" value="Postgres flexible server&amp;nbsp;&lt;div&gt;Multiple databases&lt;/div&gt;" style="image;aspect=fixed;html=1;points=[];align=center;fontSize=12;image=img/lib/azure2/databases/SQL_Server.svg;" vertex="1" parent="irybFNcAlIdu3kBuoc-8-21">
          <mxGeometry x="370" y="60" width="68" height="68" as="geometry" />
        </mxCell>
        <mxCell id="TYDsMMmlR3ZMGHGctqIx-7" value="app2 namespace" style="swimlane;whiteSpace=wrap;html=1;" vertex="1" parent="irybFNcAlIdu3kBuoc-8-21">
          <mxGeometry x="110" y="260" width="180" height="140" as="geometry" />
        </mxCell>
        <mxCell id="TYDsMMmlR3ZMGHGctqIx-8" value="&lt;div&gt;&lt;div&gt;workload-app2&lt;/div&gt;&lt;/div&gt;" style="aspect=fixed;sketch=0;html=1;dashed=0;whitespace=wrap;verticalLabelPosition=bottom;verticalAlign=top;fillColor=#2875E2;strokeColor=#ffffff;points=[[0.005,0.63,0],[0.1,0.2,0],[0.9,0.2,0],[0.5,0,0],[0.995,0.63,0],[0.72,0.99,0],[0.5,1,0],[0.28,0.99,0]];shape=mxgraph.kubernetes.icon2;kubernetesLabel=1;prIcon=pod" vertex="1" parent="TYDsMMmlR3ZMGHGctqIx-7">
          <mxGeometry x="110" y="30" width="31.25" height="30" as="geometry" />
        </mxCell>
        <mxCell id="TYDsMMmlR3ZMGHGctqIx-9" value="secret-app2" style="aspect=fixed;sketch=0;html=1;dashed=0;whitespace=wrap;verticalLabelPosition=bottom;verticalAlign=top;fillColor=#2875E2;strokeColor=#ffffff;points=[[0.005,0.63,0],[0.1,0.2,0],[0.9,0.2,0],[0.5,0,0],[0.995,0.63,0],[0.72,0.99,0],[0.5,1,0],[0.28,0.99,0]];shape=mxgraph.kubernetes.icon2;prIcon=secret" vertex="1" parent="TYDsMMmlR3ZMGHGctqIx-7">
          <mxGeometry x="30" y="30" width="31.25" height="30" as="geometry" />
        </mxCell>
        <mxCell id="TYDsMMmlR3ZMGHGctqIx-10" value="&lt;div&gt;&lt;div&gt;workload-app3&lt;/div&gt;&lt;/div&gt;" style="aspect=fixed;sketch=0;html=1;dashed=0;whitespace=wrap;verticalLabelPosition=bottom;verticalAlign=top;fillColor=#2875E2;strokeColor=#ffffff;points=[[0.005,0.63,0],[0.1,0.2,0],[0.9,0.2,0],[0.5,0,0],[0.995,0.63,0],[0.72,0.99,0],[0.5,1,0],[0.28,0.99,0]];shape=mxgraph.kubernetes.icon2;kubernetesLabel=1;prIcon=pod" vertex="1" parent="TYDsMMmlR3ZMGHGctqIx-7">
          <mxGeometry x="110" y="90" width="31.25" height="30" as="geometry" />
        </mxCell>
        <mxCell id="TYDsMMmlR3ZMGHGctqIx-11" value="secret-app3" style="aspect=fixed;sketch=0;html=1;dashed=0;whitespace=wrap;verticalLabelPosition=bottom;verticalAlign=top;fillColor=#2875E2;strokeColor=#ffffff;points=[[0.005,0.63,0],[0.1,0.2,0],[0.9,0.2,0],[0.5,0,0],[0.995,0.63,0],[0.72,0.99,0],[0.5,1,0],[0.28,0.99,0]];shape=mxgraph.kubernetes.icon2;prIcon=secret" vertex="1" parent="TYDsMMmlR3ZMGHGctqIx-7">
          <mxGeometry x="30" y="90" width="31.25" height="30" as="geometry" />
        </mxCell>
        <mxCell id="TYDsMMmlR3ZMGHGctqIx-6" value="app1 namespace" style="swimlane;whiteSpace=wrap;html=1;" vertex="1" parent="irybFNcAlIdu3kBuoc-8-21">
          <mxGeometry x="110" y="140" width="180" height="90" as="geometry" />
        </mxCell>
        <mxCell id="irybFNcAlIdu3kBuoc-8-10" value="&lt;div&gt;&lt;div&gt;workload-app1&lt;/div&gt;&lt;/div&gt;" style="aspect=fixed;sketch=0;html=1;dashed=0;whitespace=wrap;verticalLabelPosition=bottom;verticalAlign=top;fillColor=#2875E2;strokeColor=#ffffff;points=[[0.005,0.63,0],[0.1,0.2,0],[0.9,0.2,0],[0.5,0,0],[0.995,0.63,0],[0.72,0.99,0],[0.5,1,0],[0.28,0.99,0]];shape=mxgraph.kubernetes.icon2;kubernetesLabel=1;prIcon=pod" vertex="1" parent="TYDsMMmlR3ZMGHGctqIx-6">
          <mxGeometry x="110" y="30" width="31.25" height="30" as="geometry" />
        </mxCell>
        <mxCell id="irybFNcAlIdu3kBuoc-8-8" value="secret-app1" style="aspect=fixed;sketch=0;html=1;dashed=0;whitespace=wrap;verticalLabelPosition=bottom;verticalAlign=top;fillColor=#2875E2;strokeColor=#ffffff;points=[[0.005,0.63,0],[0.1,0.2,0],[0.9,0.2,0],[0.5,0,0],[0.995,0.63,0],[0.72,0.99,0],[0.5,1,0],[0.28,0.99,0]];shape=mxgraph.kubernetes.icon2;prIcon=secret" vertex="1" parent="TYDsMMmlR3ZMGHGctqIx-6">
          <mxGeometry x="30" y="30" width="31.25" height="30" as="geometry" />
        </mxCell>
        <mxCell id="TYDsMMmlR3ZMGHGctqIx-15" value="" style="endArrow=none;html=1;rounded=0;exitX=0.995;exitY=0.63;exitDx=0;exitDy=0;exitPerimeter=0;entryX=0.005;entryY=0.63;entryDx=0;entryDy=0;entryPerimeter=0;dashed=1;" edge="1" parent="TYDsMMmlR3ZMGHGctqIx-6" source="irybFNcAlIdu3kBuoc-8-8" target="irybFNcAlIdu3kBuoc-8-10">
          <mxGeometry width="50" height="50" relative="1" as="geometry">
            <mxPoint x="330" y="180" as="sourcePoint" />
            <mxPoint x="380" y="130" as="targetPoint" />
          </mxGeometry>
        </mxCell>
        <mxCell id="TYDsMMmlR3ZMGHGctqIx-12" value="" style="endArrow=classic;html=1;rounded=0;exitX=0.995;exitY=0.63;exitDx=0;exitDy=0;exitPerimeter=0;entryX=0;entryY=0.5;entryDx=0;entryDy=0;" edge="1" parent="irybFNcAlIdu3kBuoc-8-21" source="irybFNcAlIdu3kBuoc-8-10" target="TYDsMMmlR3ZMGHGctqIx-3">
          <mxGeometry width="50" height="50" relative="1" as="geometry">
            <mxPoint x="470" y="320" as="sourcePoint" />
            <mxPoint x="520" y="270" as="targetPoint" />
          </mxGeometry>
        </mxCell>
        <mxCell id="TYDsMMmlR3ZMGHGctqIx-13" value="" style="endArrow=classic;html=1;rounded=0;exitX=0.995;exitY=0.63;exitDx=0;exitDy=0;exitPerimeter=0;entryX=0;entryY=0.5;entryDx=0;entryDy=0;" edge="1" parent="irybFNcAlIdu3kBuoc-8-21" source="TYDsMMmlR3ZMGHGctqIx-8" target="TYDsMMmlR3ZMGHGctqIx-4">
          <mxGeometry width="50" height="50" relative="1" as="geometry">
            <mxPoint x="470" y="320" as="sourcePoint" />
            <mxPoint x="520" y="270" as="targetPoint" />
          </mxGeometry>
        </mxCell>
        <mxCell id="TYDsMMmlR3ZMGHGctqIx-14" value="" style="endArrow=classic;html=1;rounded=0;exitX=0.992;exitY=0.433;exitDx=0;exitDy=0;exitPerimeter=0;entryX=0;entryY=0.5;entryDx=0;entryDy=0;" edge="1" parent="irybFNcAlIdu3kBuoc-8-21" source="TYDsMMmlR3ZMGHGctqIx-10" target="TYDsMMmlR3ZMGHGctqIx-5">
          <mxGeometry width="50" height="50" relative="1" as="geometry">
            <mxPoint x="470" y="320" as="sourcePoint" />
            <mxPoint x="520" y="270" as="targetPoint" />
          </mxGeometry>
        </mxCell>
        <mxCell id="irybFNcAlIdu3kBuoc-8-6" value="AKS" style="swimlane;whiteSpace=wrap;html=1;" vertex="1" parent="irybFNcAlIdu3kBuoc-8-21">
          <mxGeometry x="84" y="90" width="250" height="320" as="geometry" />
        </mxCell>
        <mxCell id="irybFNcAlIdu3kBuoc-8-9" value="" style="image;aspect=fixed;html=1;points=[];align=center;fontSize=12;image=img/lib/azure2/compute/Kubernetes_Services.svg;" vertex="1" parent="irybFNcAlIdu3kBuoc-8-6">
          <mxGeometry x="-30" y="-20" width="68" height="60" as="geometry" />
        </mxCell>
        <mxCell id="TYDsMMmlR3ZMGHGctqIx-16" value="" style="endArrow=none;html=1;rounded=0;dashed=1;" edge="1" parent="irybFNcAlIdu3kBuoc-8-6">
          <mxGeometry width="50" height="50" relative="1" as="geometry">
            <mxPoint x="86" y="215" as="sourcePoint" />
            <mxPoint x="136" y="215" as="targetPoint" />
          </mxGeometry>
        </mxCell>
        <mxCell id="TYDsMMmlR3ZMGHGctqIx-17" value="" style="endArrow=none;html=1;rounded=0;dashed=1;" edge="1" parent="irybFNcAlIdu3kBuoc-8-6">
          <mxGeometry width="50" height="50" relative="1" as="geometry">
            <mxPoint x="86" y="280" as="sourcePoint" />
            <mxPoint x="136" y="280" as="targetPoint" />
          </mxGeometry>
        </mxCell>
      </root>
    </mxGraphModel>
  </diagram>
</mxfile>
